<svg aria-roledescription="er" role="graphics-document document" viewBox="0 0 813.3930053710938 766" style="max-width: 813.393px; background-color: white;" xmlns:xlink="http://www.w3.org/1999/xlink" xmlns="http://www.w3.org/2000/svg" width="100%" id="mermaid-1688292611277"><style>#mermaid-1688292611277{font-family:"trebuchet ms",verdana,arial,sans-serif;font-size:16px;fill:#333;}#mermaid-1688292611277 .error-icon{fill:#552222;}#mermaid-1688292611277 .error-text{fill:#552222;stroke:#552222;}#mermaid-1688292611277 .edge-thickness-normal{stroke-width:2px;}#mermaid-1688292611277 .edge-thickness-thick{stroke-width:3.5px;}#mermaid-1688292611277 .edge-pattern-solid{stroke-dasharray:0;}#mermaid-1688292611277 .edge-pattern-dashed{stroke-dasharray:3;}#mermaid-1688292611277 .edge-pattern-dotted{stroke-dasharray:2;}#mermaid-1688292611277 .marker{fill:#333333;stroke:#333333;}#mermaid-1688292611277 .marker.cross{stroke:#333333;}#mermaid-1688292611277 svg{font-family:"trebuchet ms",verdana,arial,sans-serif;font-size:16px;}#mermaid-1688292611277 .entityBox{fill:#ECECFF;stroke:#9370DB;}#mermaid-1688292611277 .attributeBoxOdd{fill:#ffffff;stroke:#9370DB;}#mermaid-1688292611277 .attributeBoxEven{fill:#f2f2f2;stroke:#9370DB;}#mermaid-1688292611277 .relationshipLabelBox{fill:hsl(80, 100%, 96.2745098039%);opacity:0.7;background-color:hsl(80, 100%, 96.2745098039%);}#mermaid-1688292611277 .relationshipLabelBox rect{opacity:0.5;}#mermaid-1688292611277 .relationshipLine{stroke:#333333;}#mermaid-1688292611277 .entityTitleText{text-anchor:middle;font-size:18px;fill:#333;}#mermaid-1688292611277 :root{--mermaid-font-family:"trebuchet ms",verdana,arial,sans-serif;}</style><g/><defs><marker orient="auto" markerHeight="18" markerWidth="18" refY="9" refX="0" id="ONLY_ONE_START"><path d="M9,0 L9,18 M15,0 L15,18" fill="none" stroke="gray"/></marker></defs><defs><marker orient="auto" markerHeight="18" markerWidth="18" refY="9" refX="18" id="ONLY_ONE_END"><path d="M3,0 L3,18 M9,0 L9,18" fill="none" stroke="gray"/></marker></defs><defs><marker orient="auto" markerHeight="18" markerWidth="30" refY="9" refX="0" id="ZERO_OR_ONE_START"><circle r="6" cy="9" cx="21" fill="white" stroke="gray"/><path d="M9,0 L9,18" fill="none" stroke="gray"/></marker></defs><defs><marker orient="auto" markerHeight="18" markerWidth="30" refY="9" refX="30" id="ZERO_OR_ONE_END"><circle r="6" cy="9" cx="9" fill="white" stroke="gray"/><path d="M21,0 L21,18" fill="none" stroke="gray"/></marker></defs><defs><marker orient="auto" markerHeight="36" markerWidth="45" refY="18" refX="18" id="ONE_OR_MORE_START"><path d="M0,18 Q 18,0 36,18 Q 18,36 0,18 M42,9 L42,27" fill="none" stroke="gray"/></marker></defs><defs><marker orient="auto" markerHeight="36" markerWidth="45" refY="18" refX="27" id="ONE_OR_MORE_END"><path d="M3,9 L3,27 M9,18 Q27,0 45,18 Q27,36 9,18" fill="none" stroke="gray"/></marker></defs><defs><marker orient="auto" markerHeight="36" markerWidth="57" refY="18" refX="18" id="ZERO_OR_MORE_START"><circle r="6" cy="18" cx="48" fill="white" stroke="gray"/><path d="M0,18 Q18,0 36,18 Q18,36 0,18" fill="none" stroke="gray"/></marker></defs><defs><marker orient="auto" markerHeight="36" markerWidth="57" refY="18" refX="39" id="ZERO_OR_MORE_END"><circle r="6" cy="18" cx="9" fill="white" stroke="gray"/><path d="M21,18 Q39,0 57,18 Q39,36 21,18" fill="none" stroke="gray"/></marker></defs><path style="stroke: gray; fill: none;" marker-start="url(#ONLY_ONE_START)" marker-end="url(#ZERO_OR_MORE_END)" d="M143.8463592529297,261.040802281592L155.51302591959634,258.0340019013267C167.17969258626303,255.02720152106133,190.51302591959634,249.0136007605307,205.0963592529297,246.00680038026533C219.67969258626303,243,225.51302591959634,243,231.3463592529297,248.66666666666666C237.17969258626303,254.33333333333334,243.01302591959634,265.6666666666667,243.01302591959634,277C243.01302591959634,288.3333333333333,237.17969258626303,299.6666666666667,231.3463592529297,305.3333333333333C225.51302591959634,311,219.67969258626303,311,205.0963592529297,307.99319961973464C190.51302591959634,304.98639923946934,167.17969258626303,298.97279847893867,155.51302591959634,295.9659980986733L143.8463592529297,292.959197718408" class="er relationshipLine"/><path style="stroke: gray; fill: none;" marker-start="url(#ONLY_ONE_START)" marker-end="url(#ZERO_OR_MORE_END)" d="M81.92317962646484,311L81.92317962646484,324.8333333333333C81.92317962646484,338.6666666666667,81.92317962646484,366.3333333333333,85.85399723652773,388.5C89.78481484659062,410.6666666666667,97.64645006671641,427.3333333333333,101.5772676767793,435.6666666666667L105.5080852868422,444" class="er relationshipLine"/><path style="stroke: gray; fill: none;" marker-start="url(#ONLY_ONE_START)" marker-end="url(#ZERO_OR_MORE_END)" d="M356.8805389404297,99L356.8805389404297,109.16666666666667C356.8805389404297,119.33333333333333,356.8805389404297,139.66666666666666,360.44179250168327,158.16666666666666C364.00304606293685,176.66666666666666,371.12555318544395,193.33333333333334,374.6868067466975,201.66666666666666L378.24806030795105,210" class="er relationshipLine"/><path style="stroke: gray; fill: none;" marker-start="url(#ONLY_ONE_START)" marker-end="url(#ZERO_OR_MORE_END)" d="M571.0429043016936,110L561.7723366586787,118.33333333333333C552.5017690156636,126.66666666666667,533.9606337296335,143.33333333333334,515.4392694506729,161.63859943034853C496.9179051717122,179.94386552736376,478.416311899821,199.8877310547275,469.1655152638753,209.85966381840936L459.9147186279297,219.83159658209127" class="er relationshipLine"/><path style="stroke: gray; fill: none;" marker-start="url(#ZERO_OR_MORE_START)" marker-end="url(#ONLY_ONE_END)" d="M644.7881801002904,110L649.1741450125711,118.33333333333333C653.5601099248519,126.66666666666667,662.3320397494132,143.33333333333334,666.718004661694,161.83333333333334C671.1039695739746,180.33333333333334,671.1039695739746,200.66666666666666,671.1039695739746,210.83333333333334L671.1039695739746,221" class="er relationshipLine"/><path style="stroke: gray; fill: none;" marker-start="url(#ONLY_ONE_START)" marker-end="url(#ZERO_OR_MORE_END)" d="M695.0355935055985,333L699.3803228503278,343.1666666666667C703.7250521950573,353.3333333333333,712.414510884516,373.6666666666667,716.7592402292453,397.6666666666667C721.1039695739746,421.6666666666667,721.1039695739746,449.3333333333333,721.1039695739746,463.1666666666667L721.1039695739746,477" class="er relationshipLine"/><path style="stroke: gray; fill: none;" marker-start="url(#ONLY_ONE_START)" marker-end="url(#ZERO_OR_MORE_END)" d="M612.7692070007324,308.2846931135585L586.1311422983805,322.5705775946321C559.4930775960287,336.8564620757057,506.2169481913249,365.4282310378528,437.70484987894696,393.5409182275723C369.19275156656903,421.65360541729177,285.4446843465169,449.3072108345836,243.57065073649088,463.13401354322946L201.69661712646484,476.96081625187537" class="er relationshipLine"/><path style="stroke: gray; fill: none;" marker-start="url(#ONLY_ONE_START)" marker-end="url(#ZERO_OR_MORE_END)" d="M721.1039695739746,523L721.1039695739746,536.8333333333334C721.1039695739746,550.6666666666666,721.1039695739746,578.3333333333334,721.1039695739746,600.5C721.1039695739746,622.6666666666666,721.1039695739746,639.3333333333334,721.1039695739746,647.6666666666666L721.1039695739746,656" class="er relationshipLine"/><g transform="translate(20,243 )" id="entity-CULTIVO-e4b9731a-f9ba-53ce-81f3-5f99d48f381b"><rect height="68" width="123.84635925292969" y="0" x="0" class="er entityBox"/><text style="dominant-baseline: middle; text-anchor: middle; font-size: 12px;" transform="translate(61.923179626464844,12)" y="0" x="0" id="text-entity-CULTIVO-e4b9731a-f9ba-53ce-81f3-5f99d48f381b" class="er entityLabel">CULTIVO</text><rect height="22" width="36.61909484863281" y="24" x="0" class="er attributeBoxOdd"/><text style="dominant-baseline: middle; font-size: 10.2px;" transform="translate(5,35)" y="0" x="0" id="text-entity-CULTIVO-e4b9731a-f9ba-53ce-81f3-5f99d48f381b-attr-1-type" class="er entityLabel">string</text><rect height="22" width="64.87326049804688" y="24" x="36.61909484863281" class="er attributeBoxOdd"/><text style="dominant-baseline: middle; font-size: 10.2px;" transform="translate(41.61909484863281,35)" y="0" x="0" id="text-entity-CULTIVO-e4b9731a-f9ba-53ce-81f3-5f99d48f381b-attr-1-name" class="er entityLabel">nombre</text><rect height="22" width="22.35400390625" y="24" x="101.49235534667969" class="er attributeBoxOdd"/><text style="dominant-baseline: middle; font-size: 10.2px;" transform="translate(106.49235534667969,35)" y="0" x="0" id="text-entity-CULTIVO-e4b9731a-f9ba-53ce-81f3-5f99d48f381b-attr-1-key" class="er entityLabel">FK</text><rect height="22" width="36.61909484863281" y="46" x="0" class="er attributeBoxEven"/><text style="dominant-baseline: middle; font-size: 10.2px;" transform="translate(5,57)" y="0" x="0" id="text-entity-CULTIVO-e4b9731a-f9ba-53ce-81f3-5f99d48f381b-attr-2-type" class="er entityLabel">string</text><rect height="22" width="64.87326049804688" y="46" x="36.61909484863281" class="er attributeBoxEven"/><text style="dominant-baseline: middle; font-size: 10.2px;" transform="translate(41.61909484863281,57)" y="0" x="0" id="text-entity-CULTIVO-e4b9731a-f9ba-53ce-81f3-5f99d48f381b-attr-2-name" class="er entityLabel">es_variedad</text><rect height="22" width="22.35400390625" y="46" x="101.49235534667969" class="er attributeBoxEven"/><text style="dominant-baseline: middle; font-size: 10.2px;" transform="translate(106.49235534667969,57)" y="0" x="0" id="text-entity-CULTIVO-e4b9731a-f9ba-53ce-81f3-5f99d48f381b-attr-2-key" class="er entityLabel">FK</text></g><g transform="translate(62.149742126464844,444 )" id="entity-MIRARFENOLOGICO-059a82cc-d1ec-505c-9e2e-c63d973e53f3"><rect height="112" width="139.546875" y="0" x="0" class="er entityBox"/><text style="dominant-baseline: middle; text-anchor: middle; font-size: 12px;" transform="translate(69.7734375,12)" y="0" x="0" id="text-entity-MIRARFENOLOGICO-059a82cc-d1ec-505c-9e2e-c63d973e53f3" class="er entityLabel">MIRAR_FENOLOGICO</text><rect height="22" width="48.60112508138021" y="24" x="0" class="er attributeBoxOdd"/><text style="dominant-baseline: middle; font-size: 10.2px;" transform="translate(5,35)" y="0" x="0" id="text-entity-MIRARFENOLOGICO-059a82cc-d1ec-505c-9e2e-c63d973e53f3-attr-1-type" class="er entityLabel">string</text><rect height="22" width="56.6097157796224" y="24" x="48.60112508138021" class="er attributeBoxOdd"/><text style="dominant-baseline: middle; font-size: 10.2px;" transform="translate(53.60112508138021,35)" y="0" x="0" id="text-entity-MIRARFENOLOGICO-059a82cc-d1ec-505c-9e2e-c63d973e53f3-attr-1-name" class="er entityLabel">cultivo</text><rect height="22" width="34.3360341389974" y="24" x="105.21084086100261" class="er attributeBoxOdd"/><text style="dominant-baseline: middle; font-size: 10.2px;" transform="translate(110.21084086100261,35)" y="0" x="0" id="text-entity-MIRARFENOLOGICO-059a82cc-d1ec-505c-9e2e-c63d973e53f3-attr-1-key" class="er entityLabel">FK</text><rect height="22" width="48.60112508138021" y="46" x="0" class="er attributeBoxEven"/><text style="dominant-baseline: middle; font-size: 10.2px;" transform="translate(5,57)" y="0" x="0" id="text-entity-MIRARFENOLOGICO-059a82cc-d1ec-505c-9e2e-c63d973e53f3-attr-2-type" class="er entityLabel">string</text><rect height="22" width="56.6097157796224" y="46" x="48.60112508138021" class="er attributeBoxEven"/><text style="dominant-baseline: middle; font-size: 10.2px;" transform="translate(53.60112508138021,57)" y="0" x="0" id="text-entity-MIRARFENOLOGICO-059a82cc-d1ec-505c-9e2e-c63d973e53f3-attr-2-name" class="er entityLabel">parcela</text><rect height="22" width="34.3360341389974" y="46" x="105.21084086100261" class="er attributeBoxEven"/><text style="dominant-baseline: middle; font-size: 10.2px;" transform="translate(110.21084086100261,57)" y="0" x="0" id="text-entity-MIRARFENOLOGICO-059a82cc-d1ec-505c-9e2e-c63d973e53f3-attr-2-key" class="er entityLabel">FK</text><rect height="22" width="48.60112508138021" y="68" x="0" class="er attributeBoxOdd"/><text style="dominant-baseline: middle; font-size: 10.2px;" transform="translate(5,79)" y="0" x="0" id="text-entity-MIRARFENOLOGICO-059a82cc-d1ec-505c-9e2e-c63d973e53f3-attr-3-type" class="er entityLabel">date</text><rect height="22" width="56.6097157796224" y="68" x="48.60112508138021" class="er attributeBoxOdd"/><text style="dominant-baseline: middle; font-size: 10.2px;" transform="translate(53.60112508138021,79)" y="0" x="0" id="text-entity-MIRARFENOLOGICO-059a82cc-d1ec-505c-9e2e-c63d973e53f3-attr-3-name" class="er entityLabel">fecha</text><rect height="22" width="34.3360341389974" y="68" x="105.21084086100261" class="er attributeBoxOdd"/><text style="dominant-baseline: middle; font-size: 10.2px;" transform="translate(110.21084086100261,79)" y="0" x="0" id="text-entity-MIRARFENOLOGICO-059a82cc-d1ec-505c-9e2e-c63d973e53f3-attr-3-key" class="er entityLabel"/><rect height="22" width="48.60112508138021" y="90" x="0" class="er attributeBoxEven"/><text style="dominant-baseline: middle; font-size: 10.2px;" transform="translate(5,101)" y="0" x="0" id="text-entity-MIRARFENOLOGICO-059a82cc-d1ec-505c-9e2e-c63d973e53f3-attr-4-type" class="er entityLabel">string</text><rect height="22" width="56.6097157796224" y="90" x="48.60112508138021" class="er attributeBoxEven"/><text style="dominant-baseline: middle; font-size: 10.2px;" transform="translate(53.60112508138021,101)" y="0" x="0" id="text-entity-MIRARFENOLOGICO-059a82cc-d1ec-505c-9e2e-c63d973e53f3-attr-4-name" class="er entityLabel">estado</text><rect height="22" width="34.3360341389974" y="90" x="105.21084086100261" class="er attributeBoxEven"/><text style="dominant-baseline: middle; font-size: 10.2px;" transform="translate(110.21084086100261,101)" y="0" x="0" id="text-entity-MIRARFENOLOGICO-059a82cc-d1ec-505c-9e2e-c63d973e53f3-attr-4-key" class="er entityLabel"/></g><g transform="translate(296.18753814697266,31 )" id="entity-INDICE-368871f2-ca19-5bbc-8e0f-410080d17d51"><rect height="68" width="121.38600158691406" y="0" x="0" class="er entityBox"/><text style="dominant-baseline: middle; text-anchor: middle; font-size: 12px;" transform="translate(60.69300079345703,12)" y="0" x="0" id="text-entity-INDICE-368871f2-ca19-5bbc-8e0f-410080d17d51" class="er entityLabel">INDICE</text><rect height="22" width="36.61909484863281" y="24" x="0" class="er attributeBoxOdd"/><text style="dominant-baseline: middle; font-size: 10.2px;" transform="translate(5,35)" y="0" x="0" id="text-entity-INDICE-368871f2-ca19-5bbc-8e0f-410080d17d51-attr-1-type" class="er entityLabel">string</text><rect height="22" width="62.41290283203125" y="24" x="36.61909484863281" class="er attributeBoxOdd"/><text style="dominant-baseline: middle; font-size: 10.2px;" transform="translate(41.61909484863281,35)" y="0" x="0" id="text-entity-INDICE-368871f2-ca19-5bbc-8e0f-410080d17d51-attr-1-name" class="er entityLabel">nombre</text><rect height="22" width="22.35400390625" y="24" x="99.03199768066406" class="er attributeBoxOdd"/><text style="dominant-baseline: middle; font-size: 10.2px;" transform="translate(104.03199768066406,35)" y="0" x="0" id="text-entity-INDICE-368871f2-ca19-5bbc-8e0f-410080d17d51-attr-1-key" class="er entityLabel">FK</text><rect height="22" width="36.61909484863281" y="46" x="0" class="er attributeBoxEven"/><text style="dominant-baseline: middle; font-size: 10.2px;" transform="translate(5,57)" y="0" x="0" id="text-entity-INDICE-368871f2-ca19-5bbc-8e0f-410080d17d51-attr-2-type" class="er entityLabel">string</text><rect height="22" width="62.41290283203125" y="46" x="36.61909484863281" class="er attributeBoxEven"/><text style="dominant-baseline: middle; font-size: 10.2px;" transform="translate(41.61909484863281,57)" y="0" x="0" id="text-entity-INDICE-368871f2-ca19-5bbc-8e0f-410080d17d51-attr-2-name" class="er entityLabel">descripcion</text><rect height="22" width="22.35400390625" y="46" x="99.03199768066406" class="er attributeBoxEven"/><text style="dominant-baseline: middle; font-size: 10.2px;" transform="translate(104.03199768066406,57)" y="0" x="0" id="text-entity-INDICE-368871f2-ca19-5bbc-8e0f-410080d17d51-attr-2-key" class="er entityLabel"/></g><g transform="translate(353.8463592529297,210 )" id="entity-MIRARINDICE-35c834af-15b6-52dd-925c-beb3b9126567"><rect height="134" width="106.068359375" y="0" x="0" class="er entityBox"/><text style="dominant-baseline: middle; text-anchor: middle; font-size: 12px;" transform="translate(53.0341796875,12)" y="0" x="0" id="text-entity-MIRARINDICE-35c834af-15b6-52dd-925c-beb3b9126567" class="er entityLabel">MIRAR_INDICE</text><rect height="22" width="45.52989705403646" y="24" x="0" class="er attributeBoxOdd"/><text style="dominant-baseline: middle; font-size: 10.2px;" transform="translate(5,35)" y="0" x="0" id="text-entity-MIRARINDICE-35c834af-15b6-52dd-925c-beb3b9126567-attr-1-type" class="er entityLabel">string</text><rect height="22" width="38.153828938802086" y="24" x="45.52989705403646" class="er attributeBoxOdd"/><text style="dominant-baseline: middle; font-size: 10.2px;" transform="translate(50.52989705403646,35)" y="0" x="0" id="text-entity-MIRARINDICE-35c834af-15b6-52dd-925c-beb3b9126567-attr-1-name" class="er entityLabel">indice</text><rect height="22" width="22.384633382161457" y="24" x="83.68372599283855" class="er attributeBoxOdd"/><text style="dominant-baseline: middle; font-size: 10.2px;" transform="translate(88.68372599283855,35)" y="0" x="0" id="text-entity-MIRARINDICE-35c834af-15b6-52dd-925c-beb3b9126567-attr-1-key" class="er entityLabel">FK</text><rect height="22" width="45.52989705403646" y="46" x="0" class="er attributeBoxEven"/><text style="dominant-baseline: middle; font-size: 10.2px;" transform="translate(5,57)" y="0" x="0" id="text-entity-MIRARINDICE-35c834af-15b6-52dd-925c-beb3b9126567-attr-2-type" class="er entityLabel">string</text><rect height="22" width="38.153828938802086" y="46" x="45.52989705403646" class="er attributeBoxEven"/><text style="dominant-baseline: middle; font-size: 10.2px;" transform="translate(50.52989705403646,57)" y="0" x="0" id="text-entity-MIRARINDICE-35c834af-15b6-52dd-925c-beb3b9126567-attr-2-name" class="er entityLabel">pixel</text><rect height="22" width="22.384633382161457" y="46" x="83.68372599283855" class="er attributeBoxEven"/><text style="dominant-baseline: middle; font-size: 10.2px;" transform="translate(88.68372599283855,57)" y="0" x="0" id="text-entity-MIRARINDICE-35c834af-15b6-52dd-925c-beb3b9126567-attr-2-key" class="er entityLabel">FK</text><rect height="22" width="45.52989705403646" y="68" x="0" class="er attributeBoxOdd"/><text style="dominant-baseline: middle; font-size: 10.2px;" transform="translate(5,79)" y="0" x="0" id="text-entity-MIRARINDICE-35c834af-15b6-52dd-925c-beb3b9126567-attr-3-type" class="er entityLabel">date</text><rect height="22" width="38.153828938802086" y="68" x="45.52989705403646" class="er attributeBoxOdd"/><text style="dominant-baseline: middle; font-size: 10.2px;" transform="translate(50.52989705403646,79)" y="0" x="0" id="text-entity-MIRARINDICE-35c834af-15b6-52dd-925c-beb3b9126567-attr-3-name" class="er entityLabel">fecha</text><rect height="22" width="22.384633382161457" y="68" x="83.68372599283855" class="er attributeBoxOdd"/><text style="dominant-baseline: middle; font-size: 10.2px;" transform="translate(88.68372599283855,79)" y="0" x="0" id="text-entity-MIRARINDICE-35c834af-15b6-52dd-925c-beb3b9126567-attr-3-key" class="er entityLabel"/><rect height="22" width="45.52989705403646" y="90" x="0" class="er attributeBoxEven"/><text style="dominant-baseline: middle; font-size: 10.2px;" transform="translate(5,101)" y="0" x="0" id="text-entity-MIRARINDICE-35c834af-15b6-52dd-925c-beb3b9126567-attr-4-type" class="er entityLabel">geojson</text><rect height="22" width="38.153828938802086" y="90" x="45.52989705403646" class="er attributeBoxEven"/><text style="dominant-baseline: middle; font-size: 10.2px;" transform="translate(50.52989705403646,101)" y="0" x="0" id="text-entity-MIRARINDICE-35c834af-15b6-52dd-925c-beb3b9126567-attr-4-name" class="er entityLabel">json</text><rect height="22" width="22.384633382161457" y="90" x="83.68372599283855" class="er attributeBoxEven"/><text style="dominant-baseline: middle; font-size: 10.2px;" transform="translate(88.68372599283855,101)" y="0" x="0" id="text-entity-MIRARINDICE-35c834af-15b6-52dd-925c-beb3b9126567-attr-4-key" class="er entityLabel"/><rect height="22" width="45.52989705403646" y="112" x="0" class="er attributeBoxOdd"/><text style="dominant-baseline: middle; font-size: 10.2px;" transform="translate(5,123)" y="0" x="0" id="text-entity-MIRARINDICE-35c834af-15b6-52dd-925c-beb3b9126567-attr-5-type" class="er entityLabel">float</text><rect height="22" width="38.153828938802086" y="112" x="45.52989705403646" class="er attributeBoxOdd"/><text style="dominant-baseline: middle; font-size: 10.2px;" transform="translate(50.52989705403646,123)" y="0" x="0" id="text-entity-MIRARINDICE-35c834af-15b6-52dd-925c-beb3b9126567-attr-5-name" class="er entityLabel">valor</text><rect height="22" width="22.384633382161457" y="112" x="83.68372599283855" class="er attributeBoxOdd"/><text style="dominant-baseline: middle; font-size: 10.2px;" transform="translate(88.68372599283855,123)" y="0" x="0" id="text-entity-MIRARINDICE-35c834af-15b6-52dd-925c-beb3b9126567-attr-5-key" class="er entityLabel"/></g><g transform="translate(564.719051361084,20 )" id="entity-PIXEL-f6818624-04a6-55fc-aa23-15dcef3cd9a9"><rect height="90" width="112.76983642578125" y="0" x="0" class="er entityBox"/><text style="dominant-baseline: middle; text-anchor: middle; font-size: 12px;" transform="translate(56.384918212890625,12)" y="0" x="0" id="text-entity-PIXEL-f6818624-04a6-55fc-aa23-15dcef3cd9a9" class="er entityLabel">PIXEL</text><rect height="22" width="45.78814697265625" y="24" x="0" class="er attributeBoxOdd"/><text style="dominant-baseline: middle; font-size: 10.2px;" transform="translate(5,35)" y="0" x="0" id="text-entity-PIXEL-f6818624-04a6-55fc-aa23-15dcef3cd9a9-attr-1-type" class="er entityLabel">string</text><rect height="22" width="44.627685546875" y="24" x="45.78814697265625" class="er attributeBoxOdd"/><text style="dominant-baseline: middle; font-size: 10.2px;" transform="translate(50.78814697265625,35)" y="0" x="0" id="text-entity-PIXEL-f6818624-04a6-55fc-aa23-15dcef3cd9a9-attr-1-name" class="er entityLabel">parcela</text><rect height="22" width="22.35400390625" y="24" x="90.41583251953125" class="er attributeBoxOdd"/><text style="dominant-baseline: middle; font-size: 10.2px;" transform="translate(95.41583251953125,35)" y="0" x="0" id="text-entity-PIXEL-f6818624-04a6-55fc-aa23-15dcef3cd9a9-attr-1-key" class="er entityLabel">FK</text><rect height="22" width="45.78814697265625" y="46" x="0" class="er attributeBoxEven"/><text style="dominant-baseline: middle; font-size: 10.2px;" transform="translate(5,57)" y="0" x="0" id="text-entity-PIXEL-f6818624-04a6-55fc-aa23-15dcef3cd9a9-attr-2-type" class="er entityLabel">polygon</text><rect height="22" width="44.627685546875" y="46" x="45.78814697265625" class="er attributeBoxEven"/><text style="dominant-baseline: middle; font-size: 10.2px;" transform="translate(50.78814697265625,57)" y="0" x="0" id="text-entity-PIXEL-f6818624-04a6-55fc-aa23-15dcef3cd9a9-attr-2-name" class="er entityLabel">geom</text><rect height="22" width="22.35400390625" y="46" x="90.41583251953125" class="er attributeBoxEven"/><text style="dominant-baseline: middle; font-size: 10.2px;" transform="translate(95.41583251953125,57)" y="0" x="0" id="text-entity-PIXEL-f6818624-04a6-55fc-aa23-15dcef3cd9a9-attr-2-key" class="er entityLabel"/><rect height="22" width="45.78814697265625" y="68" x="0" class="er attributeBoxOdd"/><text style="dominant-baseline: middle; font-size: 10.2px;" transform="translate(5,79)" y="0" x="0" id="text-entity-PIXEL-f6818624-04a6-55fc-aa23-15dcef3cd9a9-attr-3-type" class="er entityLabel">string</text><rect height="22" width="44.627685546875" y="68" x="45.78814697265625" class="er attributeBoxOdd"/><text style="dominant-baseline: middle; font-size: 10.2px;" transform="translate(50.78814697265625,79)" y="0" x="0" id="text-entity-PIXEL-f6818624-04a6-55fc-aa23-15dcef3cd9a9-attr-3-name" class="er entityLabel">idx</text><rect height="22" width="22.35400390625" y="68" x="90.41583251953125" class="er attributeBoxOdd"/><text style="dominant-baseline: middle; font-size: 10.2px;" transform="translate(95.41583251953125,79)" y="0" x="0" id="text-entity-PIXEL-f6818624-04a6-55fc-aa23-15dcef3cd9a9-attr-3-key" class="er entityLabel"/></g><g transform="translate(612.7692070007324,221 )" id="entity-PARCELA-397a2d3f-8cad-5f6f-9c32-31c208451969"><rect height="112" width="116.66952514648438" y="0" x="0" class="er entityBox"/><text style="dominant-baseline: middle; text-anchor: middle; font-size: 12px;" transform="translate(58.33476257324219,12)" y="0" x="0" id="text-entity-PARCELA-397a2d3f-8cad-5f6f-9c32-31c208451969" class="er entityLabel">PARCELA</text><rect height="22" width="45.78814697265625" y="24" x="0" class="er attributeBoxOdd"/><text style="dominant-baseline: middle; font-size: 10.2px;" transform="translate(5,35)" y="0" x="0" id="text-entity-PARCELA-397a2d3f-8cad-5f6f-9c32-31c208451969-attr-1-type" class="er entityLabel">string</text><rect height="22" width="48.527374267578125" y="24" x="45.78814697265625" class="er attributeBoxOdd"/><text style="dominant-baseline: middle; font-size: 10.2px;" transform="translate(50.78814697265625,35)" y="0" x="0" id="text-entity-PARCELA-397a2d3f-8cad-5f6f-9c32-31c208451969-attr-1-name" class="er entityLabel">idx</text><rect height="22" width="22.35400390625" y="24" x="94.31552124023438" class="er attributeBoxOdd"/><text style="dominant-baseline: middle; font-size: 10.2px;" transform="translate(99.31552124023438,35)" y="0" x="0" id="text-entity-PARCELA-397a2d3f-8cad-5f6f-9c32-31c208451969-attr-1-key" class="er entityLabel"/><rect height="22" width="45.78814697265625" y="46" x="0" class="er attributeBoxEven"/><text style="dominant-baseline: middle; font-size: 10.2px;" transform="translate(5,57)" y="0" x="0" id="text-entity-PARCELA-397a2d3f-8cad-5f6f-9c32-31c208451969-attr-2-type" class="er entityLabel">string</text><rect height="22" width="48.527374267578125" y="46" x="45.78814697265625" class="er attributeBoxEven"/><text style="dominant-baseline: middle; font-size: 10.2px;" transform="translate(50.78814697265625,57)" y="0" x="0" id="text-entity-PARCELA-397a2d3f-8cad-5f6f-9c32-31c208451969-attr-2-name" class="er entityLabel">estacion</text><rect height="22" width="22.35400390625" y="46" x="94.31552124023438" class="er attributeBoxEven"/><text style="dominant-baseline: middle; font-size: 10.2px;" transform="translate(99.31552124023438,57)" y="0" x="0" id="text-entity-PARCELA-397a2d3f-8cad-5f6f-9c32-31c208451969-attr-2-key" class="er entityLabel">FK</text><rect height="22" width="45.78814697265625" y="68" x="0" class="er attributeBoxOdd"/><text style="dominant-baseline: middle; font-size: 10.2px;" transform="translate(5,79)" y="0" x="0" id="text-entity-PARCELA-397a2d3f-8cad-5f6f-9c32-31c208451969-attr-3-type" class="er entityLabel">float</text><rect height="22" width="48.527374267578125" y="68" x="45.78814697265625" class="er attributeBoxOdd"/><text style="dominant-baseline: middle; font-size: 10.2px;" transform="translate(50.78814697265625,79)" y="0" x="0" id="text-entity-PARCELA-397a2d3f-8cad-5f6f-9c32-31c208451969-attr-3-name" class="er entityLabel">altitud</text><rect height="22" width="22.35400390625" y="68" x="94.31552124023438" class="er attributeBoxOdd"/><text style="dominant-baseline: middle; font-size: 10.2px;" transform="translate(99.31552124023438,79)" y="0" x="0" id="text-entity-PARCELA-397a2d3f-8cad-5f6f-9c32-31c208451969-attr-3-key" class="er entityLabel"/><rect height="22" width="45.78814697265625" y="90" x="0" class="er attributeBoxEven"/><text style="dominant-baseline: middle; font-size: 10.2px;" transform="translate(5,101)" y="0" x="0" id="text-entity-PARCELA-397a2d3f-8cad-5f6f-9c32-31c208451969-attr-4-type" class="er entityLabel">polygon</text><rect height="22" width="48.527374267578125" y="90" x="45.78814697265625" class="er attributeBoxEven"/><text style="dominant-baseline: middle; font-size: 10.2px;" transform="translate(50.78814697265625,101)" y="0" x="0" id="text-entity-PARCELA-397a2d3f-8cad-5f6f-9c32-31c208451969-attr-4-name" class="er entityLabel">geom</text><rect height="22" width="22.35400390625" y="90" x="94.31552124023438" class="er attributeBoxEven"/><text style="dominant-baseline: middle; font-size: 10.2px;" transform="translate(99.31552124023438,101)" y="0" x="0" id="text-entity-PARCELA-397a2d3f-8cad-5f6f-9c32-31c208451969-attr-4-key" class="er entityLabel"/></g><g transform="translate(669.0371131896973,477 )" id="entity-ESTACION-274c0dff-d0b8-59cc-97e5-e7023d679548"><rect height="46" width="104.13371276855469" y="0" x="0" class="er entityBox"/><text style="dominant-baseline: middle; text-anchor: middle; font-size: 12px;" transform="translate(52.066856384277344,12)" y="0" x="0" id="text-entity-ESTACION-274c0dff-d0b8-59cc-97e5-e7023d679548" class="er entityLabel">ESTACION</text><rect height="22" width="36.61909484863281" y="24" x="0" class="er attributeBoxOdd"/><text style="dominant-baseline: middle; font-size: 10.2px;" transform="translate(5,35)" y="0" x="0" id="text-entity-ESTACION-274c0dff-d0b8-59cc-97e5-e7023d679548-attr-1-type" class="er entityLabel">string</text><rect height="22" width="45.160614013671875" y="24" x="36.61909484863281" class="er attributeBoxOdd"/><text style="dominant-baseline: middle; font-size: 10.2px;" transform="translate(41.61909484863281,35)" y="0" x="0" id="text-entity-ESTACION-274c0dff-d0b8-59cc-97e5-e7023d679548-attr-1-name" class="er entityLabel">nombre</text><rect height="22" width="22.35400390625" y="24" x="81.77970886230469" class="er attributeBoxOdd"/><text style="dominant-baseline: middle; font-size: 10.2px;" transform="translate(86.77970886230469,35)" y="0" x="0" id="text-entity-ESTACION-274c0dff-d0b8-59cc-97e5-e7023d679548-attr-1-key" class="er entityLabel">FK</text></g><g transform="translate(648.8149070739746,656 )" id="entity-ESTACIONHISTORICO-94745b82-a794-5bc2-b54a-fec0110a90e0"><rect height="90" width="144.578125" y="0" x="0" class="er entityBox"/><text style="dominant-baseline: middle; text-anchor: middle; font-size: 12px;" transform="translate(72.2890625,12)" y="0" x="0" id="text-entity-ESTACIONHISTORICO-94745b82-a794-5bc2-b54a-fec0110a90e0" class="er entityLabel">ESTACION_HISTORICO</text><rect height="22" width="58.69684855143229" y="24" x="0" class="er attributeBoxOdd"/><text style="dominant-baseline: middle; font-size: 10.2px;" transform="translate(5,35)" y="0" x="0" id="text-entity-ESTACIONHISTORICO-94745b82-a794-5bc2-b54a-fec0110a90e0-attr-1-type" class="er entityLabel">string</text><rect height="22" width="56.027323404947914" y="24" x="58.69684855143229" class="er attributeBoxOdd"/><text style="dominant-baseline: middle; font-size: 10.2px;" transform="translate(63.69684855143229,35)" y="0" x="0" id="text-entity-ESTACIONHISTORICO-94745b82-a794-5bc2-b54a-fec0110a90e0-attr-1-name" class="er entityLabel">estacion</text><rect height="22" width="29.853953043619793" y="24" x="114.7241719563802" class="er attributeBoxOdd"/><text style="dominant-baseline: middle; font-size: 10.2px;" transform="translate(119.7241719563802,35)" y="0" x="0" id="text-entity-ESTACIONHISTORICO-94745b82-a794-5bc2-b54a-fec0110a90e0-attr-1-key" class="er entityLabel">FK</text><rect height="22" width="58.69684855143229" y="46" x="0" class="er attributeBoxEven"/><text style="dominant-baseline: middle; font-size: 10.2px;" transform="translate(5,57)" y="0" x="0" id="text-entity-ESTACIONHISTORICO-94745b82-a794-5bc2-b54a-fec0110a90e0-attr-2-type" class="er entityLabel">date</text><rect height="22" width="56.027323404947914" y="46" x="58.69684855143229" class="er attributeBoxEven"/><text style="dominant-baseline: middle; font-size: 10.2px;" transform="translate(63.69684855143229,57)" y="0" x="0" id="text-entity-ESTACIONHISTORICO-94745b82-a794-5bc2-b54a-fec0110a90e0-attr-2-name" class="er entityLabel">fecha</text><rect height="22" width="29.853953043619793" y="46" x="114.7241719563802" class="er attributeBoxEven"/><text style="dominant-baseline: middle; font-size: 10.2px;" transform="translate(119.7241719563802,57)" y="0" x="0" id="text-entity-ESTACIONHISTORICO-94745b82-a794-5bc2-b54a-fec0110a90e0-attr-2-key" class="er entityLabel"/><rect height="22" width="58.69684855143229" y="68" x="0" class="er attributeBoxOdd"/><text style="dominant-baseline: middle; font-size: 10.2px;" transform="translate(5,79)" y="0" x="0" id="text-entity-ESTACIONHISTORICO-94745b82-a794-5bc2-b54a-fec0110a90e0-attr-3-type" class="er entityLabel">charfield</text><rect height="22" width="56.027323404947914" y="68" x="58.69684855143229" class="er attributeBoxOdd"/><text style="dominant-baseline: middle; font-size: 10.2px;" transform="translate(63.69684855143229,79)" y="0" x="0" id="text-entity-ESTACIONHISTORICO-94745b82-a794-5bc2-b54a-fec0110a90e0-attr-3-name" class="er entityLabel">file</text><rect height="22" width="29.853953043619793" y="68" x="114.7241719563802" class="er attributeBoxOdd"/><text style="dominant-baseline: middle; font-size: 10.2px;" transform="translate(119.7241719563802,79)" y="0" x="0" id="text-entity-ESTACIONHISTORICO-94745b82-a794-5bc2-b54a-fec0110a90e0-attr-3-key" class="er entityLabel"/></g><rect height="14" width="8.421875" y="270" x="238.80209350585938" class="er relationshipLabelBox"/><text style="text-anchor: middle; dominant-baseline: middle; font-size: 12px;" y="277" x="243.01303100585938" id="rel1" class="er relationshipLabel">is</text><rect height="14" width="44.978515625" y="372.3000183105469" x="61.98199462890625" class="er relationshipLabelBox"/><text style="text-anchor: middle; dominant-baseline: middle; font-size: 12px;" y="379.3000183105469" x="84.47125244140625" id="rel2" class="er relationshipLabel">contains</text><rect height="14" width="44.978515625" y="148.98153686523438" x="337.5496520996094" class="er relationshipLabelBox"/><text style="text-anchor: middle; dominant-baseline: middle; font-size: 12px;" y="155.98153686523438" x="360.0389099121094" id="rel3" class="er relationshipLabel">contains</text><rect height="14" width="44.978515625" y="156.23928833007812" x="491.3349609375" class="er relationshipLabelBox"/><text style="text-anchor: middle; dominant-baseline: middle; font-size: 12px;" y="163.23928833007812" x="513.82421875" id="rel4" class="er relationshipLabel">contains</text><rect height="14" width="8.421875" y="156.30715942382812" x="662.8462524414062" class="er relationshipLabelBox"/><text style="text-anchor: middle; dominant-baseline: middle; font-size: 12px;" y="163.30715942382812" x="667.0571899414062" id="rel5" class="er relationshipLabel">is</text><rect height="14" width="44.978515625" y="396.1791076660156" x="695.1844482421875" class="er relationshipLabelBox"/><text style="text-anchor: middle; dominant-baseline: middle; font-size: 12px;" y="403.1791076660156" x="717.6737060546875" id="rel6" class="er relationshipLabel">contains</text><rect height="14" width="44.978515625" y="396.83917236328125" x="389.42413330078125" class="er relationshipLabelBox"/><text style="text-anchor: middle; dominant-baseline: middle; font-size: 12px;" y="403.83917236328125" x="411.91339111328125" id="rel7" class="er relationshipLabel">contains</text><rect height="14" width="44.978515625" y="582.5" x="698.6146850585938" class="er relationshipLabelBox"/><text style="text-anchor: middle; dominant-baseline: middle; font-size: 12px;" y="589.5" x="721.1039428710938" id="rel8" class="er relationshipLabel">contains</text></svg>