<svg aria-roledescription="er" role="graphics-document document" viewBox="0 0 460.7490539550781 364" style="max-width: 460.749px; background-color: white;" xmlns:xlink="http://www.w3.org/1999/xlink" xmlns="http://www.w3.org/2000/svg" width="100%" id="mermaid-1688218304561"><style>#mermaid-1688218304561{font-family:"trebuchet ms",verdana,arial,sans-serif;font-size:16px;fill:#333;}#mermaid-1688218304561 .error-icon{fill:#552222;}#mermaid-1688218304561 .error-text{fill:#552222;stroke:#552222;}#mermaid-1688218304561 .edge-thickness-normal{stroke-width:2px;}#mermaid-1688218304561 .edge-thickness-thick{stroke-width:3.5px;}#mermaid-1688218304561 .edge-pattern-solid{stroke-dasharray:0;}#mermaid-1688218304561 .edge-pattern-dashed{stroke-dasharray:3;}#mermaid-1688218304561 .edge-pattern-dotted{stroke-dasharray:2;}#mermaid-1688218304561 .marker{fill:#333333;stroke:#333333;}#mermaid-1688218304561 .marker.cross{stroke:#333333;}#mermaid-1688218304561 svg{font-family:"trebuchet ms",verdana,arial,sans-serif;font-size:16px;}#mermaid-1688218304561 .entityBox{fill:#ECECFF;stroke:#9370DB;}#mermaid-1688218304561 .attributeBoxOdd{fill:#ffffff;stroke:#9370DB;}#mermaid-1688218304561 .attributeBoxEven{fill:#f2f2f2;stroke:#9370DB;}#mermaid-1688218304561 .relationshipLabelBox{fill:hsl(80, 100%, 96.2745098039%);opacity:0.7;background-color:hsl(80, 100%, 96.2745098039%);}#mermaid-1688218304561 .relationshipLabelBox rect{opacity:0.5;}#mermaid-1688218304561 .relationshipLine{stroke:#333333;}#mermaid-1688218304561 .entityTitleText{text-anchor:middle;font-size:18px;fill:#333;}#mermaid-1688218304561 :root{--mermaid-font-family:"trebuchet ms",verdana,arial,sans-serif;}</style><g/><defs><marker orient="auto" markerHeight="18" markerWidth="18" refY="9" refX="0" id="ONLY_ONE_START"><path d="M9,0 L9,18 M15,0 L15,18" fill="none" stroke="gray"/></marker></defs><defs><marker orient="auto" markerHeight="18" markerWidth="18" refY="9" refX="18" id="ONLY_ONE_END"><path d="M3,0 L3,18 M9,0 L9,18" fill="none" stroke="gray"/></marker></defs><defs><marker orient="auto" markerHeight="18" markerWidth="30" refY="9" refX="0" id="ZERO_OR_ONE_START"><circle r="6" cy="9" cx="21" fill="white" stroke="gray"/><path d="M9,0 L9,18" fill="none" stroke="gray"/></marker></defs><defs><marker orient="auto" markerHeight="18" markerWidth="30" refY="9" refX="30" id="ZERO_OR_ONE_END"><circle r="6" cy="9" cx="9" fill="white" stroke="gray"/><path d="M21,0 L21,18" fill="none" stroke="gray"/></marker></defs><defs><marker orient="auto" markerHeight="36" markerWidth="45" refY="18" refX="18" id="ONE_OR_MORE_START"><path d="M0,18 Q 18,0 36,18 Q 18,36 0,18 M42,9 L42,27" fill="none" stroke="gray"/></marker></defs><defs><marker orient="auto" markerHeight="36" markerWidth="45" refY="18" refX="27" id="ONE_OR_MORE_END"><path d="M3,9 L3,27 M9,18 Q27,0 45,18 Q27,36 9,18" fill="none" stroke="gray"/></marker></defs><defs><marker orient="auto" markerHeight="36" markerWidth="57" refY="18" refX="18" id="ZERO_OR_MORE_START"><circle r="6" cy="18" cx="48" fill="white" stroke="gray"/><path d="M0,18 Q18,0 36,18 Q18,36 0,18" fill="none" stroke="gray"/></marker></defs><defs><marker orient="auto" markerHeight="36" markerWidth="57" refY="18" refX="39" id="ZERO_OR_MORE_END"><circle r="6" cy="18" cx="9" fill="white" stroke="gray"/><path d="M21,18 Q39,0 57,18 Q39,36 21,18" fill="none" stroke="gray"/></marker></defs><path style="stroke: gray; fill: none;" marker-start="url(#ONLY_ONE_START)" marker-end="url(#ZERO_OR_MORE_END)" d="M80.69300079345703,99L80.69300079345703,109.16666666666667C80.69300079345703,119.33333333333333,80.69300079345703,139.66666666666666,84.2542543547106,158.16666666666666C87.81550791596415,176.66666666666666,94.93801503847128,193.33333333333334,98.49926859972483,201.66666666666666L102.0605221609784,210" class="er relationshipLine"/><path style="stroke: gray; fill: none;" marker-start="url(#ONLY_ONE_START)" marker-end="url(#ZERO_OR_MORE_END)" d="M292.6620075828151,110L283.75699970178437,118.33333333333333C274.85199182075365,126.66666666666667,257.0419760586922,143.33333333333334,238.88617154171592,161.63859943034853C220.7303670247396,179.94386552736376,202.2287737528483,199.8877310547275,192.97797711690268,209.85966381840936L183.72718048095703,219.83159658209127" class="er relationshipLine"/><path style="stroke: gray; fill: none;" marker-start="url(#ZERO_OR_MORE_START)" marker-end="url(#ONLY_ONE_END)" d="M364.43326066669664,110L368.8192255789774,118.33333333333333C373.20519049125807,126.66666666666667,381.9771203158195,143.33333333333334,386.36308522810015,161.83333333333334C390.74905014038086,180.33333333333334,390.74905014038086,200.66666666666666,390.74905014038086,210.83333333333334L390.74905014038086,221" class="er relationshipLine"/><g transform="translate(20,31 )" id="entity-INDICE-368871f2-ca19-5bbc-8e0f-410080d17d51"><rect height="68" width="121.38600158691406" y="0" x="0" class="er entityBox"/><text style="dominant-baseline: middle; text-anchor: middle; font-size: 12px;" transform="translate(60.69300079345703,12)" y="0" x="0" id="text-entity-INDICE-368871f2-ca19-5bbc-8e0f-410080d17d51" class="er entityLabel">INDICE</text><rect height="22" width="36.61909484863281" y="24" x="0" class="er attributeBoxOdd"/><text style="dominant-baseline: middle; font-size: 10.2px;" transform="translate(5,35)" y="0" x="0" id="text-entity-INDICE-368871f2-ca19-5bbc-8e0f-410080d17d51-attr-1-type" class="er entityLabel">string</text><rect height="22" width="62.41290283203125" y="24" x="36.61909484863281" class="er attributeBoxOdd"/><text style="dominant-baseline: middle; font-size: 10.2px;" transform="translate(41.61909484863281,35)" y="0" x="0" id="text-entity-INDICE-368871f2-ca19-5bbc-8e0f-410080d17d51-attr-1-name" class="er entityLabel">nombre</text><rect height="22" width="22.35400390625" y="24" x="99.03199768066406" class="er attributeBoxOdd"/><text style="dominant-baseline: middle; font-size: 10.2px;" transform="translate(104.03199768066406,35)" y="0" x="0" id="text-entity-INDICE-368871f2-ca19-5bbc-8e0f-410080d17d51-attr-1-key" class="er entityLabel">FK</text><rect height="22" width="36.61909484863281" y="46" x="0" class="er attributeBoxEven"/><text style="dominant-baseline: middle; font-size: 10.2px;" transform="translate(5,57)" y="0" x="0" id="text-entity-INDICE-368871f2-ca19-5bbc-8e0f-410080d17d51-attr-2-type" class="er entityLabel">string</text><rect height="22" width="62.41290283203125" y="46" x="36.61909484863281" class="er attributeBoxEven"/><text style="dominant-baseline: middle; font-size: 10.2px;" transform="translate(41.61909484863281,57)" y="0" x="0" id="text-entity-INDICE-368871f2-ca19-5bbc-8e0f-410080d17d51-attr-2-name" class="er entityLabel">descripcion</text><rect height="22" width="22.35400390625" y="46" x="99.03199768066406" class="er attributeBoxEven"/><text style="dominant-baseline: middle; font-size: 10.2px;" transform="translate(104.03199768066406,57)" y="0" x="0" id="text-entity-INDICE-368871f2-ca19-5bbc-8e0f-410080d17d51-attr-2-key" class="er entityLabel"/></g><g transform="translate(77.65882110595703,210 )" id="entity-MIRARINDICE-35c834af-15b6-52dd-925c-beb3b9126567"><rect height="134" width="106.068359375" y="0" x="0" class="er entityBox"/><text style="dominant-baseline: middle; text-anchor: middle; font-size: 12px;" transform="translate(53.0341796875,12)" y="0" x="0" id="text-entity-MIRARINDICE-35c834af-15b6-52dd-925c-beb3b9126567" class="er entityLabel">MIRAR_INDICE</text><rect height="22" width="45.52989705403646" y="24" x="0" class="er attributeBoxOdd"/><text style="dominant-baseline: middle; font-size: 10.2px;" transform="translate(5,35)" y="0" x="0" id="text-entity-MIRARINDICE-35c834af-15b6-52dd-925c-beb3b9126567-attr-1-type" class="er entityLabel">string</text><rect height="22" width="38.153828938802086" y="24" x="45.52989705403646" class="er attributeBoxOdd"/><text style="dominant-baseline: middle; font-size: 10.2px;" transform="translate(50.52989705403646,35)" y="0" x="0" id="text-entity-MIRARINDICE-35c834af-15b6-52dd-925c-beb3b9126567-attr-1-name" class="er entityLabel">indice</text><rect height="22" width="22.384633382161457" y="24" x="83.68372599283855" class="er attributeBoxOdd"/><text style="dominant-baseline: middle; font-size: 10.2px;" transform="translate(88.68372599283855,35)" y="0" x="0" id="text-entity-MIRARINDICE-35c834af-15b6-52dd-925c-beb3b9126567-attr-1-key" class="er entityLabel">FK</text><rect height="22" width="45.52989705403646" y="46" x="0" class="er attributeBoxEven"/><text style="dominant-baseline: middle; font-size: 10.2px;" transform="translate(5,57)" y="0" x="0" id="text-entity-MIRARINDICE-35c834af-15b6-52dd-925c-beb3b9126567-attr-2-type" class="er entityLabel">string</text><rect height="22" width="38.153828938802086" y="46" x="45.52989705403646" class="er attributeBoxEven"/><text style="dominant-baseline: middle; font-size: 10.2px;" transform="translate(50.52989705403646,57)" y="0" x="0" id="text-entity-MIRARINDICE-35c834af-15b6-52dd-925c-beb3b9126567-attr-2-name" class="er entityLabel">pixel</text><rect height="22" width="22.384633382161457" y="46" x="83.68372599283855" class="er attributeBoxEven"/><text style="dominant-baseline: middle; font-size: 10.2px;" transform="translate(88.68372599283855,57)" y="0" x="0" id="text-entity-MIRARINDICE-35c834af-15b6-52dd-925c-beb3b9126567-attr-2-key" class="er entityLabel">FK</text><rect height="22" width="45.52989705403646" y="68" x="0" class="er attributeBoxOdd"/><text style="dominant-baseline: middle; font-size: 10.2px;" transform="translate(5,79)" y="0" x="0" id="text-entity-MIRARINDICE-35c834af-15b6-52dd-925c-beb3b9126567-attr-3-type" class="er entityLabel">date</text><rect height="22" width="38.153828938802086" y="68" x="45.52989705403646" class="er attributeBoxOdd"/><text style="dominant-baseline: middle; font-size: 10.2px;" transform="translate(50.52989705403646,79)" y="0" x="0" id="text-entity-MIRARINDICE-35c834af-15b6-52dd-925c-beb3b9126567-attr-3-name" class="er entityLabel">fecha</text><rect height="22" width="22.384633382161457" y="68" x="83.68372599283855" class="er attributeBoxOdd"/><text style="dominant-baseline: middle; font-size: 10.2px;" transform="translate(88.68372599283855,79)" y="0" x="0" id="text-entity-MIRARINDICE-35c834af-15b6-52dd-925c-beb3b9126567-attr-3-key" class="er entityLabel"/><rect height="22" width="45.52989705403646" y="90" x="0" class="er attributeBoxEven"/><text style="dominant-baseline: middle; font-size: 10.2px;" transform="translate(5,101)" y="0" x="0" id="text-entity-MIRARINDICE-35c834af-15b6-52dd-925c-beb3b9126567-attr-4-type" class="er entityLabel">geojson</text><rect height="22" width="38.153828938802086" y="90" x="45.52989705403646" class="er attributeBoxEven"/><text style="dominant-baseline: middle; font-size: 10.2px;" transform="translate(50.52989705403646,101)" y="0" x="0" id="text-entity-MIRARINDICE-35c834af-15b6-52dd-925c-beb3b9126567-attr-4-name" class="er entityLabel">json</text><rect height="22" width="22.384633382161457" y="90" x="83.68372599283855" class="er attributeBoxEven"/><text style="dominant-baseline: middle; font-size: 10.2px;" transform="translate(88.68372599283855,101)" y="0" x="0" id="text-entity-MIRARINDICE-35c834af-15b6-52dd-925c-beb3b9126567-attr-4-key" class="er entityLabel"/><rect height="22" width="45.52989705403646" y="112" x="0" class="er attributeBoxOdd"/><text style="dominant-baseline: middle; font-size: 10.2px;" transform="translate(5,123)" y="0" x="0" id="text-entity-MIRARINDICE-35c834af-15b6-52dd-925c-beb3b9126567-attr-5-type" class="er entityLabel">float</text><rect height="22" width="38.153828938802086" y="112" x="45.52989705403646" class="er attributeBoxOdd"/><text style="dominant-baseline: middle; font-size: 10.2px;" transform="translate(50.52989705403646,123)" y="0" x="0" id="text-entity-MIRARINDICE-35c834af-15b6-52dd-925c-beb3b9126567-attr-5-name" class="er entityLabel">valor</text><rect height="22" width="22.384633382161457" y="112" x="83.68372599283855" class="er attributeBoxOdd"/><text style="dominant-baseline: middle; font-size: 10.2px;" transform="translate(88.68372599283855,123)" y="0" x="0" id="text-entity-MIRARINDICE-35c834af-15b6-52dd-925c-beb3b9126567-attr-5-key" class="er entityLabel"/></g><g transform="translate(284.36413192749023,20 )" id="entity-PIXEL-f6818624-04a6-55fc-aa23-15dcef3cd9a9"><rect height="90" width="112.76983642578125" y="0" x="0" class="er entityBox"/><text style="dominant-baseline: middle; text-anchor: middle; font-size: 12px;" transform="translate(56.384918212890625,12)" y="0" x="0" id="text-entity-PIXEL-f6818624-04a6-55fc-aa23-15dcef3cd9a9" class="er entityLabel">PIXEL</text><rect height="22" width="45.78814697265625" y="24" x="0" class="er attributeBoxOdd"/><text style="dominant-baseline: middle; font-size: 10.2px;" transform="translate(5,35)" y="0" x="0" id="text-entity-PIXEL-f6818624-04a6-55fc-aa23-15dcef3cd9a9-attr-1-type" class="er entityLabel">string</text><rect height="22" width="44.627685546875" y="24" x="45.78814697265625" class="er attributeBoxOdd"/><text style="dominant-baseline: middle; font-size: 10.2px;" transform="translate(50.78814697265625,35)" y="0" x="0" id="text-entity-PIXEL-f6818624-04a6-55fc-aa23-15dcef3cd9a9-attr-1-name" class="er entityLabel">parcela</text><rect height="22" width="22.35400390625" y="24" x="90.41583251953125" class="er attributeBoxOdd"/><text style="dominant-baseline: middle; font-size: 10.2px;" transform="translate(95.41583251953125,35)" y="0" x="0" id="text-entity-PIXEL-f6818624-04a6-55fc-aa23-15dcef3cd9a9-attr-1-key" class="er entityLabel">FK</text><rect height="22" width="45.78814697265625" y="46" x="0" class="er attributeBoxEven"/><text style="dominant-baseline: middle; font-size: 10.2px;" transform="translate(5,57)" y="0" x="0" id="text-entity-PIXEL-f6818624-04a6-55fc-aa23-15dcef3cd9a9-attr-2-type" class="er entityLabel">polygon</text><rect height="22" width="44.627685546875" y="46" x="45.78814697265625" class="er attributeBoxEven"/><text style="dominant-baseline: middle; font-size: 10.2px;" transform="translate(50.78814697265625,57)" y="0" x="0" id="text-entity-PIXEL-f6818624-04a6-55fc-aa23-15dcef3cd9a9-attr-2-name" class="er entityLabel">geom</text><rect height="22" width="22.35400390625" y="46" x="90.41583251953125" class="er attributeBoxEven"/><text style="dominant-baseline: middle; font-size: 10.2px;" transform="translate(95.41583251953125,57)" y="0" x="0" id="text-entity-PIXEL-f6818624-04a6-55fc-aa23-15dcef3cd9a9-attr-2-key" class="er entityLabel"/><rect height="22" width="45.78814697265625" y="68" x="0" class="er attributeBoxOdd"/><text style="dominant-baseline: middle; font-size: 10.2px;" transform="translate(5,79)" y="0" x="0" id="text-entity-PIXEL-f6818624-04a6-55fc-aa23-15dcef3cd9a9-attr-3-type" class="er entityLabel">string</text><rect height="22" width="44.627685546875" y="68" x="45.78814697265625" class="er attributeBoxOdd"/><text style="dominant-baseline: middle; font-size: 10.2px;" transform="translate(50.78814697265625,79)" y="0" x="0" id="text-entity-PIXEL-f6818624-04a6-55fc-aa23-15dcef3cd9a9-attr-3-name" class="er entityLabel">idx</text><rect height="22" width="22.35400390625" y="68" x="90.41583251953125" class="er attributeBoxOdd"/><text style="dominant-baseline: middle; font-size: 10.2px;" transform="translate(95.41583251953125,79)" y="0" x="0" id="text-entity-PIXEL-f6818624-04a6-55fc-aa23-15dcef3cd9a9-attr-3-key" class="er entityLabel"/></g><g transform="translate(340.74905014038086,221 )" id="entity-PARCELA-397a2d3f-8cad-5f6f-9c32-31c208451969"><rect height="112" width="100" y="0" x="0" class="er entityBox"/><text style="dominant-baseline: middle; text-anchor: middle; font-size: 12px;" transform="translate(50,12)" y="0" x="0" id="text-entity-PARCELA-397a2d3f-8cad-5f6f-9c32-31c208451969" class="er entityLabel">PARCELA</text><rect height="22" width="48.63038635253906" y="24" x="0" class="er attributeBoxOdd"/><text style="dominant-baseline: middle; font-size: 10.2px;" transform="translate(5,35)" y="0" x="0" id="text-entity-PARCELA-397a2d3f-8cad-5f6f-9c32-31c208451969-attr-1-type" class="er entityLabel">string</text><rect height="22" width="51.36961364746094" y="24" x="48.63038635253906" class="er attributeBoxOdd"/><text style="dominant-baseline: middle; font-size: 10.2px;" transform="translate(53.63038635253906,35)" y="0" x="0" id="text-entity-PARCELA-397a2d3f-8cad-5f6f-9c32-31c208451969-attr-1-name" class="er entityLabel">idx</text><rect height="22" width="48.63038635253906" y="46" x="0" class="er attributeBoxEven"/><text style="dominant-baseline: middle; font-size: 10.2px;" transform="translate(5,57)" y="0" x="0" id="text-entity-PARCELA-397a2d3f-8cad-5f6f-9c32-31c208451969-attr-2-type" class="er entityLabel">string</text><rect height="22" width="51.36961364746094" y="46" x="48.63038635253906" class="er attributeBoxEven"/><text style="dominant-baseline: middle; font-size: 10.2px;" transform="translate(53.63038635253906,57)" y="0" x="0" id="text-entity-PARCELA-397a2d3f-8cad-5f6f-9c32-31c208451969-attr-2-name" class="er entityLabel">estacion</text><rect height="22" width="48.63038635253906" y="68" x="0" class="er attributeBoxOdd"/><text style="dominant-baseline: middle; font-size: 10.2px;" transform="translate(5,79)" y="0" x="0" id="text-entity-PARCELA-397a2d3f-8cad-5f6f-9c32-31c208451969-attr-3-type" class="er entityLabel">float</text><rect height="22" width="51.36961364746094" y="68" x="48.63038635253906" class="er attributeBoxOdd"/><text style="dominant-baseline: middle; font-size: 10.2px;" transform="translate(53.63038635253906,79)" y="0" x="0" id="text-entity-PARCELA-397a2d3f-8cad-5f6f-9c32-31c208451969-attr-3-name" class="er entityLabel">altitud</text><rect height="22" width="48.63038635253906" y="90" x="0" class="er attributeBoxEven"/><text style="dominant-baseline: middle; font-size: 10.2px;" transform="translate(5,101)" y="0" x="0" id="text-entity-PARCELA-397a2d3f-8cad-5f6f-9c32-31c208451969-attr-4-type" class="er entityLabel">polygon</text><rect height="22" width="51.36961364746094" y="90" x="48.63038635253906" class="er attributeBoxEven"/><text style="dominant-baseline: middle; font-size: 10.2px;" transform="translate(53.63038635253906,101)" y="0" x="0" id="text-entity-PARCELA-397a2d3f-8cad-5f6f-9c32-31c208451969-attr-4-name" class="er entityLabel">geom</text></g><rect height="14" width="44.978515625" y="148.98155212402344" x="61.362098693847656" class="er relationshipLabelBox"/><text style="text-anchor: middle; dominant-baseline: middle; font-size: 12px;" y="155.98155212402344" x="83.85135650634766" id="rel1" class="er relationshipLabel">contains</text><rect height="14" width="44.978515625" y="156.6382598876953" x="214.4190216064453" class="er relationshipLabelBox"/><text style="text-anchor: middle; dominant-baseline: middle; font-size: 12px;" y="163.6382598876953" x="236.9082794189453" id="rel2" class="er relationshipLabel">contains</text><rect height="14" width="44.978515625" y="156.30715942382812" x="364.2130126953125" class="er relationshipLabelBox"/><text style="text-anchor: middle; dominant-baseline: middle; font-size: 12px;" y="163.30715942382812" x="386.7022705078125" id="rel3" class="er relationshipLabel">contains</text></svg>