<svg aria-roledescription="er" role="graphics-document document" viewBox="0 0 552.401123046875 656" style="max-width: 552.401px; background-color: white;" xmlns:xlink="http://www.w3.org/1999/xlink" xmlns="http://www.w3.org/2000/svg" width="100%" id="mermaid-1685972476325"><style>#mermaid-1685972476325{font-family:"trebuchet ms",verdana,arial,sans-serif;font-size:16px;fill:#333;}#mermaid-1685972476325 .error-icon{fill:#552222;}#mermaid-1685972476325 .error-text{fill:#552222;stroke:#552222;}#mermaid-1685972476325 .edge-thickness-normal{stroke-width:2px;}#mermaid-1685972476325 .edge-thickness-thick{stroke-width:3.5px;}#mermaid-1685972476325 .edge-pattern-solid{stroke-dasharray:0;}#mermaid-1685972476325 .edge-pattern-dashed{stroke-dasharray:3;}#mermaid-1685972476325 .edge-pattern-dotted{stroke-dasharray:2;}#mermaid-1685972476325 .marker{fill:#333333;stroke:#333333;}#mermaid-1685972476325 .marker.cross{stroke:#333333;}#mermaid-1685972476325 svg{font-family:"trebuchet ms",verdana,arial,sans-serif;font-size:16px;}#mermaid-1685972476325 .entityBox{fill:#ECECFF;stroke:#9370DB;}#mermaid-1685972476325 .attributeBoxOdd{fill:#ffffff;stroke:#9370DB;}#mermaid-1685972476325 .attributeBoxEven{fill:#f2f2f2;stroke:#9370DB;}#mermaid-1685972476325 .relationshipLabelBox{fill:hsl(80, 100%, 96.2745098039%);opacity:0.7;background-color:hsl(80, 100%, 96.2745098039%);}#mermaid-1685972476325 .relationshipLabelBox rect{opacity:0.5;}#mermaid-1685972476325 .relationshipLine{stroke:#333333;}#mermaid-1685972476325 .entityTitleText{text-anchor:middle;font-size:18px;fill:#333;}#mermaid-1685972476325 :root{--mermaid-font-family:"trebuchet ms",verdana,arial,sans-serif;}</style><g/><defs><marker orient="auto" markerHeight="18" markerWidth="18" refY="9" refX="0" id="ONLY_ONE_START"><path d="M9,0 L9,18 M15,0 L15,18" fill="none" stroke="gray"/></marker></defs><defs><marker orient="auto" markerHeight="18" markerWidth="18" refY="9" refX="18" id="ONLY_ONE_END"><path d="M3,0 L3,18 M9,0 L9,18" fill="none" stroke="gray"/></marker></defs><defs><marker orient="auto" markerHeight="18" markerWidth="30" refY="9" refX="0" id="ZERO_OR_ONE_START"><circle r="6" cy="9" cx="21" fill="white" stroke="gray"/><path d="M9,0 L9,18" fill="none" stroke="gray"/></marker></defs><defs><marker orient="auto" markerHeight="18" markerWidth="30" refY="9" refX="30" id="ZERO_OR_ONE_END"><circle r="6" cy="9" cx="9" fill="white" stroke="gray"/><path d="M21,0 L21,18" fill="none" stroke="gray"/></marker></defs><defs><marker orient="auto" markerHeight="36" markerWidth="45" refY="18" refX="18" id="ONE_OR_MORE_START"><path d="M0,18 Q 18,0 36,18 Q 18,36 0,18 M42,9 L42,27" fill="none" stroke="gray"/></marker></defs><defs><marker orient="auto" markerHeight="36" markerWidth="45" refY="18" refX="27" id="ONE_OR_MORE_END"><path d="M3,9 L3,27 M9,18 Q27,0 45,18 Q27,36 9,18" fill="none" stroke="gray"/></marker></defs><defs><marker orient="auto" markerHeight="36" markerWidth="57" refY="18" refX="18" id="ZERO_OR_MORE_START"><circle r="6" cy="18" cx="48" fill="white" stroke="gray"/><path d="M0,18 Q18,0 36,18 Q18,36 0,18" fill="none" stroke="gray"/></marker></defs><defs><marker orient="auto" markerHeight="36" markerWidth="57" refY="18" refX="39" id="ZERO_OR_MORE_END"><circle r="6" cy="18" cx="9" fill="white" stroke="gray"/><path d="M21,18 Q39,0 57,18 Q39,36 21,18" fill="none" stroke="gray"/></marker></defs><path style="stroke: gray; fill: none;" marker-start="url(#ZERO_OR_MORE_START)" marker-end="url(#ONLY_ONE_END)" d="M72.06685638427734,256L72.06685638427734,264.3333333333333C72.06685638427734,272.6666666666667,72.06685638427734,289.3333333333333,97.41133244832356,308.09579157948133C122.7558085123698,326.8582498256293,173.44476064046225,347.7164996512586,198.78923670450845,358.1456245640732L224.1337127685547,368.57474947688786" class="er relationshipLine"/><path style="stroke: gray; fill: none;" marker-start="url(#ZERO_OR_MORE_START)" marker-end="url(#ONLY_ONE_END)" d="M276.20056915283203,256L276.20056915283203,264.3333333333333C276.20056915283203,272.6666666666667,276.20056915283203,289.3333333333333,276.20056915283203,306C276.20056915283203,322.6666666666667,276.20056915283203,339.3333333333333,276.20056915283203,347.6666666666667L276.20056915283203,356" class="er relationshipLine"/><path style="stroke: gray; fill: none;" marker-start="url(#ZERO_OR_MORE_START)" marker-end="url(#ONLY_ONE_END)" d="M480.3342819213867,256L480.3342819213867,264.3333333333333C480.3342819213867,272.6666666666667,480.3342819213867,289.3333333333333,454.9898058573405,308.09579157948133C429.64532979329425,326.8582498256293,378.95637766520184,347.7164996512586,353.6119016011556,358.1456245640732L328.2674255371094,368.57474947688786" class="er relationshipLine"/><path style="stroke: gray; fill: none;" marker-start="url(#ONLY_ONE_START)" marker-end="url(#ZERO_OR_MORE_END)" d="M276.20056915283203,88L276.20056915283203,96.33333333333333C276.20056915283203,104.66666666666667,276.20056915283203,121.33333333333333,276.20056915283203,138C276.20056915283203,154.66666666666666,276.20056915283203,171.33333333333334,276.20056915283203,179.66666666666666L276.20056915283203,188" class="er relationshipLine"/><path style="stroke: gray; fill: none;" marker-start="url(#ONLY_ONE_START)" marker-end="url(#ZERO_OR_MORE_END)" d="M276.20056915283203,424L276.20056915283203,432.3333333333333C276.20056915283203,440.6666666666667,276.20056915283203,457.3333333333333,276.20056915283203,474C276.20056915283203,490.6666666666667,276.20056915283203,507.3333333333333,276.20056915283203,515.6666666666666L276.20056915283203,524" class="er relationshipLine"/><g transform="translate(20,188 )" id="entity-CULTIVADOR-4b976107-9a93-5ea6-a689-e53ffd44865d"><rect height="68" width="104.13371276855469" y="0" x="0" class="er entityBox"/><text style="dominant-baseline: middle; text-anchor: middle; font-size: 12px;" transform="translate(52.066856384277344,12)" y="0" x="0" id="text-entity-CULTIVADOR-4b976107-9a93-5ea6-a689-e53ffd44865d" class="er entityLabel">CULTIVADOR</text><rect height="22" width="36.61909484863281" y="24" x="0" class="er attributeBoxOdd"/><text style="dominant-baseline: middle; font-size: 10.2px;" transform="translate(5,35)" y="0" x="0" id="text-entity-CULTIVADOR-4b976107-9a93-5ea6-a689-e53ffd44865d-attr-1-type" class="er entityLabel">string</text><rect height="22" width="45.160614013671875" y="24" x="36.61909484863281" class="er attributeBoxOdd"/><text style="dominant-baseline: middle; font-size: 10.2px;" transform="translate(41.61909484863281,35)" y="0" x="0" id="text-entity-CULTIVADOR-4b976107-9a93-5ea6-a689-e53ffd44865d-attr-1-name" class="er entityLabel">nombre</text><rect height="22" width="22.35400390625" y="24" x="81.77970886230469" class="er attributeBoxOdd"/><text style="dominant-baseline: middle; font-size: 10.2px;" transform="translate(86.77970886230469,35)" y="0" x="0" id="text-entity-CULTIVADOR-4b976107-9a93-5ea6-a689-e53ffd44865d-attr-1-key" class="er entityLabel"/><rect height="22" width="36.61909484863281" y="46" x="0" class="er attributeBoxEven"/><text style="dominant-baseline: middle; font-size: 10.2px;" transform="translate(5,57)" y="0" x="0" id="text-entity-CULTIVADOR-4b976107-9a93-5ea6-a689-e53ffd44865d-attr-2-type" class="er entityLabel">string</text><rect height="22" width="45.160614013671875" y="46" x="36.61909484863281" class="er attributeBoxEven"/><text style="dominant-baseline: middle; font-size: 10.2px;" transform="translate(41.61909484863281,57)" y="0" x="0" id="text-entity-CULTIVADOR-4b976107-9a93-5ea6-a689-e53ffd44865d-attr-2-name" class="er entityLabel">parent</text><rect height="22" width="22.35400390625" y="46" x="81.77970886230469" class="er attributeBoxEven"/><text style="dominant-baseline: middle; font-size: 10.2px;" transform="translate(86.77970886230469,57)" y="0" x="0" id="text-entity-CULTIVADOR-4b976107-9a93-5ea6-a689-e53ffd44865d-attr-2-key" class="er entityLabel">FK</text></g><g transform="translate(224.1337127685547,356 )" id="entity-INTERESADO-82436f7b-d83d-5cd4-a2f6-bd91b5a481cd"><rect height="68" width="104.13371276855469" y="0" x="0" class="er entityBox"/><text style="dominant-baseline: middle; text-anchor: middle; font-size: 12px;" transform="translate(52.066856384277344,12)" y="0" x="0" id="text-entity-INTERESADO-82436f7b-d83d-5cd4-a2f6-bd91b5a481cd" class="er entityLabel">INTERESADO</text><rect height="22" width="36.61909484863281" y="24" x="0" class="er attributeBoxOdd"/><text style="dominant-baseline: middle; font-size: 10.2px;" transform="translate(5,35)" y="0" x="0" id="text-entity-INTERESADO-82436f7b-d83d-5cd4-a2f6-bd91b5a481cd-attr-1-type" class="er entityLabel">string</text><rect height="22" width="45.160614013671875" y="24" x="36.61909484863281" class="er attributeBoxOdd"/><text style="dominant-baseline: middle; font-size: 10.2px;" transform="translate(41.61909484863281,35)" y="0" x="0" id="text-entity-INTERESADO-82436f7b-d83d-5cd4-a2f6-bd91b5a481cd-attr-1-name" class="er entityLabel">parcela</text><rect height="22" width="22.35400390625" y="24" x="81.77970886230469" class="er attributeBoxOdd"/><text style="dominant-baseline: middle; font-size: 10.2px;" transform="translate(86.77970886230469,35)" y="0" x="0" id="text-entity-INTERESADO-82436f7b-d83d-5cd4-a2f6-bd91b5a481cd-attr-1-key" class="er entityLabel">FK</text><rect height="22" width="36.61909484863281" y="46" x="0" class="er attributeBoxEven"/><text style="dominant-baseline: middle; font-size: 10.2px;" transform="translate(5,57)" y="0" x="0" id="text-entity-INTERESADO-82436f7b-d83d-5cd4-a2f6-bd91b5a481cd-attr-2-type" class="er entityLabel">string</text><rect height="22" width="45.160614013671875" y="46" x="36.61909484863281" class="er attributeBoxEven"/><text style="dominant-baseline: middle; font-size: 10.2px;" transform="translate(41.61909484863281,57)" y="0" x="0" id="text-entity-INTERESADO-82436f7b-d83d-5cd4-a2f6-bd91b5a481cd-attr-2-name" class="er entityLabel">nombre</text><rect height="22" width="22.35400390625" y="46" x="81.77970886230469" class="er attributeBoxEven"/><text style="dominant-baseline: middle; font-size: 10.2px;" transform="translate(86.77970886230469,57)" y="0" x="0" id="text-entity-INTERESADO-82436f7b-d83d-5cd4-a2f6-bd91b5a481cd-attr-2-key" class="er entityLabel"/></g><g transform="translate(224.1337127685547,188 )" id="entity-TECNICO-c6d65ed5-8e80-5727-a5f6-6300295c6726"><rect height="68" width="104.13371276855469" y="0" x="0" class="er entityBox"/><text style="dominant-baseline: middle; text-anchor: middle; font-size: 12px;" transform="translate(52.066856384277344,12)" y="0" x="0" id="text-entity-TECNICO-c6d65ed5-8e80-5727-a5f6-6300295c6726" class="er entityLabel">TECNICO</text><rect height="22" width="36.61909484863281" y="24" x="0" class="er attributeBoxOdd"/><text style="dominant-baseline: middle; font-size: 10.2px;" transform="translate(5,35)" y="0" x="0" id="text-entity-TECNICO-c6d65ed5-8e80-5727-a5f6-6300295c6726-attr-1-type" class="er entityLabel">string</text><rect height="22" width="45.160614013671875" y="24" x="36.61909484863281" class="er attributeBoxOdd"/><text style="dominant-baseline: middle; font-size: 10.2px;" transform="translate(41.61909484863281,35)" y="0" x="0" id="text-entity-TECNICO-c6d65ed5-8e80-5727-a5f6-6300295c6726-attr-1-name" class="er entityLabel">nombre</text><rect height="22" width="22.35400390625" y="24" x="81.77970886230469" class="er attributeBoxOdd"/><text style="dominant-baseline: middle; font-size: 10.2px;" transform="translate(86.77970886230469,35)" y="0" x="0" id="text-entity-TECNICO-c6d65ed5-8e80-5727-a5f6-6300295c6726-attr-1-key" class="er entityLabel"/><rect height="22" width="36.61909484863281" y="46" x="0" class="er attributeBoxEven"/><text style="dominant-baseline: middle; font-size: 10.2px;" transform="translate(5,57)" y="0" x="0" id="text-entity-TECNICO-c6d65ed5-8e80-5727-a5f6-6300295c6726-attr-2-type" class="er entityLabel">string</text><rect height="22" width="45.160614013671875" y="46" x="36.61909484863281" class="er attributeBoxEven"/><text style="dominant-baseline: middle; font-size: 10.2px;" transform="translate(41.61909484863281,57)" y="0" x="0" id="text-entity-TECNICO-c6d65ed5-8e80-5727-a5f6-6300295c6726-attr-2-name" class="er entityLabel">parent</text><rect height="22" width="22.35400390625" y="46" x="81.77970886230469" class="er attributeBoxEven"/><text style="dominant-baseline: middle; font-size: 10.2px;" transform="translate(86.77970886230469,57)" y="0" x="0" id="text-entity-TECNICO-c6d65ed5-8e80-5727-a5f6-6300295c6726-attr-2-key" class="er entityLabel">FK</text></g><g transform="translate(428.2674255371094,188 )" id="entity-PROPIETARIO-006514a1-4c31-5a93-afb5-ae6a6361edc0"><rect height="68" width="104.13371276855469" y="0" x="0" class="er entityBox"/><text style="dominant-baseline: middle; text-anchor: middle; font-size: 12px;" transform="translate(52.066856384277344,12)" y="0" x="0" id="text-entity-PROPIETARIO-006514a1-4c31-5a93-afb5-ae6a6361edc0" class="er entityLabel">PROPIETARIO</text><rect height="22" width="36.61909484863281" y="24" x="0" class="er attributeBoxOdd"/><text style="dominant-baseline: middle; font-size: 10.2px;" transform="translate(5,35)" y="0" x="0" id="text-entity-PROPIETARIO-006514a1-4c31-5a93-afb5-ae6a6361edc0-attr-1-type" class="er entityLabel">string</text><rect height="22" width="45.160614013671875" y="24" x="36.61909484863281" class="er attributeBoxOdd"/><text style="dominant-baseline: middle; font-size: 10.2px;" transform="translate(41.61909484863281,35)" y="0" x="0" id="text-entity-PROPIETARIO-006514a1-4c31-5a93-afb5-ae6a6361edc0-attr-1-name" class="er entityLabel">nombre</text><rect height="22" width="22.35400390625" y="24" x="81.77970886230469" class="er attributeBoxOdd"/><text style="dominant-baseline: middle; font-size: 10.2px;" transform="translate(86.77970886230469,35)" y="0" x="0" id="text-entity-PROPIETARIO-006514a1-4c31-5a93-afb5-ae6a6361edc0-attr-1-key" class="er entityLabel"/><rect height="22" width="36.61909484863281" y="46" x="0" class="er attributeBoxEven"/><text style="dominant-baseline: middle; font-size: 10.2px;" transform="translate(5,57)" y="0" x="0" id="text-entity-PROPIETARIO-006514a1-4c31-5a93-afb5-ae6a6361edc0-attr-2-type" class="er entityLabel">string</text><rect height="22" width="45.160614013671875" y="46" x="36.61909484863281" class="er attributeBoxEven"/><text style="dominant-baseline: middle; font-size: 10.2px;" transform="translate(41.61909484863281,57)" y="0" x="0" id="text-entity-PROPIETARIO-006514a1-4c31-5a93-afb5-ae6a6361edc0-attr-2-name" class="er entityLabel">parent</text><rect height="22" width="22.35400390625" y="46" x="81.77970886230469" class="er attributeBoxEven"/><text style="dominant-baseline: middle; font-size: 10.2px;" transform="translate(86.77970886230469,57)" y="0" x="0" id="text-entity-PROPIETARIO-006514a1-4c31-5a93-afb5-ae6a6361edc0-attr-2-key" class="er entityLabel">FK</text></g><g transform="translate(222.38256072998047,20 )" id="entity-COOPERATIVA-0e392d62-3cf6-5081-92b7-83a8d1aeea37"><rect height="68" width="107.63601684570312" y="0" x="0" class="er entityBox"/><text style="dominant-baseline: middle; text-anchor: middle; font-size: 12px;" transform="translate(53.81800842285156,12)" y="0" x="0" id="text-entity-COOPERATIVA-0e392d62-3cf6-5081-92b7-83a8d1aeea37" class="er entityLabel">COOPERATIVA</text><rect height="22" width="36.61909484863281" y="24" x="0" class="er attributeBoxOdd"/><text style="dominant-baseline: middle; font-size: 10.2px;" transform="translate(5,35)" y="0" x="0" id="text-entity-COOPERATIVA-0e392d62-3cf6-5081-92b7-83a8d1aeea37-attr-1-type" class="er entityLabel">string</text><rect height="22" width="48.66291809082031" y="24" x="36.61909484863281" class="er attributeBoxOdd"/><text style="dominant-baseline: middle; font-size: 10.2px;" transform="translate(41.61909484863281,35)" y="0" x="0" id="text-entity-COOPERATIVA-0e392d62-3cf6-5081-92b7-83a8d1aeea37-attr-1-name" class="er entityLabel">nombre</text><rect height="22" width="22.35400390625" y="24" x="85.28201293945312" class="er attributeBoxOdd"/><text style="dominant-baseline: middle; font-size: 10.2px;" transform="translate(90.28201293945312,35)" y="0" x="0" id="text-entity-COOPERATIVA-0e392d62-3cf6-5081-92b7-83a8d1aeea37-attr-1-key" class="er entityLabel"/><rect height="22" width="36.61909484863281" y="46" x="0" class="er attributeBoxEven"/><text style="dominant-baseline: middle; font-size: 10.2px;" transform="translate(5,57)" y="0" x="0" id="text-entity-COOPERATIVA-0e392d62-3cf6-5081-92b7-83a8d1aeea37-attr-2-type" class="er entityLabel">string</text><rect height="22" width="48.66291809082031" y="46" x="36.61909484863281" class="er attributeBoxEven"/><text style="dominant-baseline: middle; font-size: 10.2px;" transform="translate(41.61909484863281,57)" y="0" x="0" id="text-entity-COOPERATIVA-0e392d62-3cf6-5081-92b7-83a8d1aeea37-attr-2-name" class="er entityLabel">tecnicos</text><rect height="22" width="22.35400390625" y="46" x="85.28201293945312" class="er attributeBoxEven"/><text style="dominant-baseline: middle; font-size: 10.2px;" transform="translate(90.28201293945312,57)" y="0" x="0" id="text-entity-COOPERATIVA-0e392d62-3cf6-5081-92b7-83a8d1aeea37-attr-2-key" class="er entityLabel">FK</text></g><g transform="translate(226.20056915283203,524 )" id="entity-PARCELA-397a2d3f-8cad-5f6f-9c32-31c208451969"><rect height="112" width="100" y="0" x="0" class="er entityBox"/><text style="dominant-baseline: middle; text-anchor: middle; font-size: 12px;" transform="translate(50,12)" y="0" x="0" id="text-entity-PARCELA-397a2d3f-8cad-5f6f-9c32-31c208451969" class="er entityLabel">PARCELA</text><rect height="22" width="48.63038635253906" y="24" x="0" class="er attributeBoxOdd"/><text style="dominant-baseline: middle; font-size: 10.2px;" transform="translate(5,35)" y="0" x="0" id="text-entity-PARCELA-397a2d3f-8cad-5f6f-9c32-31c208451969-attr-1-type" class="er entityLabel">string</text><rect height="22" width="51.36961364746094" y="24" x="48.63038635253906" class="er attributeBoxOdd"/><text style="dominant-baseline: middle; font-size: 10.2px;" transform="translate(53.63038635253906,35)" y="0" x="0" id="text-entity-PARCELA-397a2d3f-8cad-5f6f-9c32-31c208451969-attr-1-name" class="er entityLabel">idx</text><rect height="22" width="48.63038635253906" y="46" x="0" class="er attributeBoxEven"/><text style="dominant-baseline: middle; font-size: 10.2px;" transform="translate(5,57)" y="0" x="0" id="text-entity-PARCELA-397a2d3f-8cad-5f6f-9c32-31c208451969-attr-2-type" class="er entityLabel">string</text><rect height="22" width="51.36961364746094" y="46" x="48.63038635253906" class="er attributeBoxEven"/><text style="dominant-baseline: middle; font-size: 10.2px;" transform="translate(53.63038635253906,57)" y="0" x="0" id="text-entity-PARCELA-397a2d3f-8cad-5f6f-9c32-31c208451969-attr-2-name" class="er entityLabel">estacion</text><rect height="22" width="48.63038635253906" y="68" x="0" class="er attributeBoxOdd"/><text style="dominant-baseline: middle; font-size: 10.2px;" transform="translate(5,79)" y="0" x="0" id="text-entity-PARCELA-397a2d3f-8cad-5f6f-9c32-31c208451969-attr-3-type" class="er entityLabel">float</text><rect height="22" width="51.36961364746094" y="68" x="48.63038635253906" class="er attributeBoxOdd"/><text style="dominant-baseline: middle; font-size: 10.2px;" transform="translate(53.63038635253906,79)" y="0" x="0" id="text-entity-PARCELA-397a2d3f-8cad-5f6f-9c32-31c208451969-attr-3-name" class="er entityLabel">altitud</text><rect height="22" width="48.63038635253906" y="90" x="0" class="er attributeBoxEven"/><text style="dominant-baseline: middle; font-size: 10.2px;" transform="translate(5,101)" y="0" x="0" id="text-entity-PARCELA-397a2d3f-8cad-5f6f-9c32-31c208451969-attr-4-type" class="er entityLabel">polygon</text><rect height="22" width="51.36961364746094" y="90" x="48.63038635253906" class="er attributeBoxEven"/><text style="dominant-baseline: middle; font-size: 10.2px;" transform="translate(53.63038635253906,101)" y="0" x="0" id="text-entity-PARCELA-397a2d3f-8cad-5f6f-9c32-31c208451969-attr-4-name" class="er entityLabel">geom</text></g><rect height="14" width="8.421875" y="321.2709655761719" x="127.43022155761719" class="er relationshipLabelBox"/><text style="text-anchor: middle; dominant-baseline: middle; font-size: 12px;" y="328.2709655761719" x="131.6411590576172" id="rel1" class="er relationshipLabel">is</text><rect height="14" width="8.421875" y="299" x="271.9896240234375" class="er relationshipLabelBox"/><text style="text-anchor: middle; dominant-baseline: middle; font-size: 12px;" y="306" x="276.2005615234375" id="rel2" class="er relationshipLabel">is</text><rect height="14" width="8.421875" y="321.2703857421875" x="416.5487365722656" class="er relationshipLabelBox"/><text style="text-anchor: middle; dominant-baseline: middle; font-size: 12px;" y="328.2703857421875" x="420.7596740722656" id="rel3" class="er relationshipLabel">is</text><rect height="14" width="44.978515625" y="131" x="253.7113037109375" class="er relationshipLabelBox"/><text style="text-anchor: middle; dominant-baseline: middle; font-size: 12px;" y="138" x="276.2005615234375" id="rel4" class="er relationshipLabel">contains</text><rect height="14" width="44.978515625" y="467" x="253.7113037109375" class="er relationshipLabelBox"/><text style="text-anchor: middle; dominant-baseline: middle; font-size: 12px;" y="474" x="276.2005615234375" id="rel5" class="er relationshipLabel">contains</text></svg>