<svg aria-roledescription="er" role="graphics-document document" viewBox="0 0 740 290" style="max-width: 740px; background-color: white;" xmlns:xlink="http://www.w3.org/1999/xlink" xmlns="http://www.w3.org/2000/svg" width="100%" id="mermaid-1688131608348"><style>#mermaid-1688131608348{font-family:"trebuchet ms",verdana,arial,sans-serif;font-size:16px;fill:#333;}#mermaid-1688131608348 .error-icon{fill:#552222;}#mermaid-1688131608348 .error-text{fill:#552222;stroke:#552222;}#mermaid-1688131608348 .edge-thickness-normal{stroke-width:2px;}#mermaid-1688131608348 .edge-thickness-thick{stroke-width:3.5px;}#mermaid-1688131608348 .edge-pattern-solid{stroke-dasharray:0;}#mermaid-1688131608348 .edge-pattern-dashed{stroke-dasharray:3;}#mermaid-1688131608348 .edge-pattern-dotted{stroke-dasharray:2;}#mermaid-1688131608348 .marker{fill:#333333;stroke:#333333;}#mermaid-1688131608348 .marker.cross{stroke:#333333;}#mermaid-1688131608348 svg{font-family:"trebuchet ms",verdana,arial,sans-serif;font-size:16px;}#mermaid-1688131608348 .entityBox{fill:#ECECFF;stroke:#9370DB;}#mermaid-1688131608348 .attributeBoxOdd{fill:#ffffff;stroke:#9370DB;}#mermaid-1688131608348 .attributeBoxEven{fill:#f2f2f2;stroke:#9370DB;}#mermaid-1688131608348 .relationshipLabelBox{fill:hsl(80, 100%, 96.2745098039%);opacity:0.7;background-color:hsl(80, 100%, 96.2745098039%);}#mermaid-1688131608348 .relationshipLabelBox rect{opacity:0.5;}#mermaid-1688131608348 .relationshipLine{stroke:#333333;}#mermaid-1688131608348 .entityTitleText{text-anchor:middle;font-size:18px;fill:#333;}#mermaid-1688131608348 :root{--mermaid-font-family:"trebuchet ms",verdana,arial,sans-serif;}</style><g/><defs><marker orient="auto" markerHeight="18" markerWidth="18" refY="9" refX="0" id="ONLY_ONE_START"><path d="M9,0 L9,18 M15,0 L15,18" fill="none" stroke="gray"/></marker></defs><defs><marker orient="auto" markerHeight="18" markerWidth="18" refY="9" refX="18" id="ONLY_ONE_END"><path d="M3,0 L3,18 M9,0 L9,18" fill="none" stroke="gray"/></marker></defs><defs><marker orient="auto" markerHeight="18" markerWidth="30" refY="9" refX="0" id="ZERO_OR_ONE_START"><circle r="6" cy="9" cx="21" fill="white" stroke="gray"/><path d="M9,0 L9,18" fill="none" stroke="gray"/></marker></defs><defs><marker orient="auto" markerHeight="18" markerWidth="30" refY="9" refX="30" id="ZERO_OR_ONE_END"><circle r="6" cy="9" cx="9" fill="white" stroke="gray"/><path d="M21,0 L21,18" fill="none" stroke="gray"/></marker></defs><defs><marker orient="auto" markerHeight="36" markerWidth="45" refY="18" refX="18" id="ONE_OR_MORE_START"><path d="M0,18 Q 18,0 36,18 Q 18,36 0,18 M42,9 L42,27" fill="none" stroke="gray"/></marker></defs><defs><marker orient="auto" markerHeight="36" markerWidth="45" refY="18" refX="27" id="ONE_OR_MORE_END"><path d="M3,9 L3,27 M9,18 Q27,0 45,18 Q27,36 9,18" fill="none" stroke="gray"/></marker></defs><defs><marker orient="auto" markerHeight="36" markerWidth="57" refY="18" refX="18" id="ZERO_OR_MORE_START"><circle r="6" cy="18" cx="48" fill="white" stroke="gray"/><path d="M0,18 Q18,0 36,18 Q18,36 0,18" fill="none" stroke="gray"/></marker></defs><defs><marker orient="auto" markerHeight="36" markerWidth="57" refY="18" refX="39" id="ZERO_OR_MORE_END"><circle r="6" cy="18" cx="9" fill="white" stroke="gray"/><path d="M21,18 Q39,0 57,18 Q39,36 21,18" fill="none" stroke="gray"/></marker></defs><path style="stroke: gray; fill: none;" marker-start="url(#ONLY_ONE_START)" marker-end="url(#ONE_OR_MORE_END)" d="M70,95L70,103.33333333333333C70,111.66666666666667,70,128.33333333333334,111.66666666666667,148.81944444444443C153.33333333333334,169.30555555555554,236.66666666666666,193.6111111111111,278.3333333333333,205.76388888888889L320,217.91666666666666" class="er relationshipLine"/><path style="stroke: gray; fill: none;" marker-start="url(#ONE_OR_MORE_START)" marker-end="url(#ONE_OR_MORE_END)" stroke-dasharray="8,8" d="M270,95L270,103.33333333333333C270,111.66666666666667,270,128.33333333333334,279.5238095238095,145C289.04761904761904,161.66666666666666,308.09523809523813,178.33333333333334,317.61904761904765,186.66666666666666L327.14285714285717,195" class="er relationshipLine"/><path style="stroke: gray; fill: none;" marker-start="url(#ONE_OR_MORE_START)" marker-end="url(#ONE_OR_MORE_END)" stroke-dasharray="8,8" d="M470,95L470,103.33333333333333C470,111.66666666666667,470,128.33333333333334,460.4761904761904,145C450.95238095238096,161.66666666666666,431.9047619047619,178.33333333333334,422.38095238095235,186.66666666666666L412.85714285714283,195" class="er relationshipLine"/><path style="stroke: gray; fill: none;" marker-start="url(#ONE_OR_MORE_START)" marker-end="url(#ONE_OR_MORE_END)" stroke-dasharray="8,8" d="M670,95L670,103.33333333333333C670,111.66666666666667,670,128.33333333333334,628.3333333333334,148.81944444444443C586.6666666666666,169.30555555555554,503.3333333333333,193.6111111111111,461.6666666666667,205.76388888888889L420,217.91666666666666" class="er relationshipLine"/><g transform="translate(20,20 )" id="entity-CUADERNO-1840c8f9-3f7e-590c-af90-fbfeaf525c1c"><rect height="75" width="100" y="0" x="0" class="er entityBox"/><text style="dominant-baseline: middle; text-anchor: middle; font-size: 12px;" transform="translate(50,37.5)" y="0" x="0" id="text-entity-CUADERNO-1840c8f9-3f7e-590c-af90-fbfeaf525c1c" class="er entityLabel">CUADERNO</text></g><g transform="translate(320,195 )" id="entity-CORE-f142ad16-95e9-53a8-af5d-efb76f1648c0"><rect height="75" width="100" y="0" x="0" class="er entityBox"/><text style="dominant-baseline: middle; text-anchor: middle; font-size: 12px;" transform="translate(50,37.5)" y="0" x="0" id="text-entity-CORE-f142ad16-95e9-53a8-af5d-efb76f1648c0" class="er entityLabel">CORE</text></g><g transform="translate(220,20 )" id="entity-ROLES-f9f06ada-961b-52c6-afb8-7718b058ae5c"><rect height="75" width="100" y="0" x="0" class="er entityBox"/><text style="dominant-baseline: middle; text-anchor: middle; font-size: 12px;" transform="translate(50,37.5)" y="0" x="0" id="text-entity-ROLES-f9f06ada-961b-52c6-afb8-7718b058ae5c" class="er entityLabel">ROLES</text></g><g transform="translate(420,20 )" id="entity-METEO-065fb01e-b743-5007-9c3f-d04566a95fba"><rect height="75" width="100" y="0" x="0" class="er entityBox"/><text style="dominant-baseline: middle; text-anchor: middle; font-size: 12px;" transform="translate(50,37.5)" y="0" x="0" id="text-entity-METEO-065fb01e-b743-5007-9c3f-d04566a95fba" class="er entityLabel">METEO</text></g><g transform="translate(620,20 )" id="entity-AUTO-38987179-6149-5380-b9c0-477221476267"><rect height="75" width="100" y="0" x="0" class="er entityBox"/><text style="dominant-baseline: middle; text-anchor: middle; font-size: 12px;" transform="translate(50,37.5)" y="0" x="0" id="text-entity-AUTO-38987179-6149-5380-b9c0-477221476267" class="er entityLabel">AUTO</text></g><rect height="14" width="22.958984375" y="168.3456268310547" x="168.19534301757812" class="er relationshipLabelBox"/><text style="text-anchor: middle; dominant-baseline: middle; font-size: 12px;" y="175.3456268310547" x="179.67483520507812" id="rel1" class="er relationshipLabel">uses</text><rect height="14" width="22.958984375" y="145.43545532226562" x="272.8822937011719" class="er relationshipLabelBox"/><text style="text-anchor: middle; dominant-baseline: middle; font-size: 12px;" y="152.43545532226562" x="284.3617858886719" id="rel2" class="er relationshipLabel">uses</text><rect height="14" width="22.958984375" y="145.43545532226562" x="444.1587219238281" class="er relationshipLabelBox"/><text style="text-anchor: middle; dominant-baseline: middle; font-size: 12px;" y="152.43545532226562" x="455.6382141113281" id="rel3" class="er relationshipLabel">uses</text><rect height="14" width="22.958984375" y="168.34518432617188" x="548.8455810546875" class="er relationshipLabelBox"/><text style="text-anchor: middle; dominant-baseline: middle; font-size: 12px;" y="175.34518432617188" x="560.3250732421875" id="rel4" class="er relationshipLabel">uses</text></svg>