<svg aria-roledescription="gitGraph" role="graphics-document document" viewBox="-124.078125 -19 532.078125 263.6632995605469" height="263.6632995605469" xmlns:xlink="http://www.w3.org/1999/xlink" xmlns="http://www.w3.org/2000/svg" width="532.078125" id="mermaid-1685971879730" style="background-color: white;"><style>#mermaid-1685971879730{font-family:"trebuchet ms",verdana,arial,sans-serif;font-size:16px;fill:#333;}#mermaid-1685971879730 .error-icon{fill:#552222;}#mermaid-1685971879730 .error-text{fill:#552222;stroke:#552222;}#mermaid-1685971879730 .edge-thickness-normal{stroke-width:2px;}#mermaid-1685971879730 .edge-thickness-thick{stroke-width:3.5px;}#mermaid-1685971879730 .edge-pattern-solid{stroke-dasharray:0;}#mermaid-1685971879730 .edge-pattern-dashed{stroke-dasharray:3;}#mermaid-1685971879730 .edge-pattern-dotted{stroke-dasharray:2;}#mermaid-1685971879730 .marker{fill:#333333;stroke:#333333;}#mermaid-1685971879730 .marker.cross{stroke:#333333;}#mermaid-1685971879730 svg{font-family:"trebuchet ms",verdana,arial,sans-serif;font-size:16px;}#mermaid-1685971879730 .commit-id,#mermaid-1685971879730 .commit-msg,#mermaid-1685971879730 .branch-label{fill:lightgrey;color:lightgrey;font-family:'trebuchet ms',verdana,arial,sans-serif;font-family:var(--mermaid-font-family);}#mermaid-1685971879730 .branch-label0{fill:#ffffff;}#mermaid-1685971879730 .commit0{stroke:hsl(240, 100%, 46.2745098039%);fill:hsl(240, 100%, 46.2745098039%);}#mermaid-1685971879730 .commit-highlight0{stroke:hsl(60, 100%, 3.7254901961%);fill:hsl(60, 100%, 3.7254901961%);}#mermaid-1685971879730 .label0{fill:hsl(240, 100%, 46.2745098039%);}#mermaid-1685971879730 .arrow0{stroke:hsl(240, 100%, 46.2745098039%);}#mermaid-1685971879730 .branch-label1{fill:black;}#mermaid-1685971879730 .commit1{stroke:hsl(60, 100%, 43.5294117647%);fill:hsl(60, 100%, 43.5294117647%);}#mermaid-1685971879730 .commit-highlight1{stroke:rgb(0, 0, 160.5);fill:rgb(0, 0, 160.5);}#mermaid-1685971879730 .label1{fill:hsl(60, 100%, 43.5294117647%);}#mermaid-1685971879730 .arrow1{stroke:hsl(60, 100%, 43.5294117647%);}#mermaid-1685971879730 .branch-label2{fill:black;}#mermaid-1685971879730 .commit2{stroke:hsl(80, 100%, 46.2745098039%);fill:hsl(80, 100%, 46.2745098039%);}#mermaid-1685971879730 .commit-highlight2{stroke:rgb(48.8333333334, 0, 146.5000000001);fill:rgb(48.8333333334, 0, 146.5000000001);}#mermaid-1685971879730 .label2{fill:hsl(80, 100%, 46.2745098039%);}#mermaid-1685971879730 .arrow2{stroke:hsl(80, 100%, 46.2745098039%);}#mermaid-1685971879730 .branch-label3{fill:#ffffff;}#mermaid-1685971879730 .commit3{stroke:hsl(210, 100%, 46.2745098039%);fill:hsl(210, 100%, 46.2745098039%);}#mermaid-1685971879730 .commit-highlight3{stroke:rgb(146.5000000001, 73.2500000001, 0);fill:rgb(146.5000000001, 73.2500000001, 0);}#mermaid-1685971879730 .label3{fill:hsl(210, 100%, 46.2745098039%);}#mermaid-1685971879730 .arrow3{stroke:hsl(210, 100%, 46.2745098039%);}#mermaid-1685971879730 .branch-label4{fill:black;}#mermaid-1685971879730 .commit4{stroke:hsl(180, 100%, 46.2745098039%);fill:hsl(180, 100%, 46.2745098039%);}#mermaid-1685971879730 .commit-highlight4{stroke:rgb(146.5000000001, 0, 0);fill:rgb(146.5000000001, 0, 0);}#mermaid-1685971879730 .label4{fill:hsl(180, 100%, 46.2745098039%);}#mermaid-1685971879730 .arrow4{stroke:hsl(180, 100%, 46.2745098039%);}#mermaid-1685971879730 .branch-label5{fill:black;}#mermaid-1685971879730 .commit5{stroke:hsl(150, 100%, 46.2745098039%);fill:hsl(150, 100%, 46.2745098039%);}#mermaid-1685971879730 .commit-highlight5{stroke:rgb(146.5000000001, 0, 73.2500000001);fill:rgb(146.5000000001, 0, 73.2500000001);}#mermaid-1685971879730 .label5{fill:hsl(150, 100%, 46.2745098039%);}#mermaid-1685971879730 .arrow5{stroke:hsl(150, 100%, 46.2745098039%);}#mermaid-1685971879730 .branch-label6{fill:black;}#mermaid-1685971879730 .commit6{stroke:hsl(300, 100%, 46.2745098039%);fill:hsl(300, 100%, 46.2745098039%);}#mermaid-1685971879730 .commit-highlight6{stroke:rgb(0, 146.5000000001, 0);fill:rgb(0, 146.5000000001, 0);}#mermaid-1685971879730 .label6{fill:hsl(300, 100%, 46.2745098039%);}#mermaid-1685971879730 .arrow6{stroke:hsl(300, 100%, 46.2745098039%);}#mermaid-1685971879730 .branch-label7{fill:black;}#mermaid-1685971879730 .commit7{stroke:hsl(0, 100%, 46.2745098039%);fill:hsl(0, 100%, 46.2745098039%);}#mermaid-1685971879730 .commit-highlight7{stroke:rgb(0, 146.5000000001, 146.5000000001);fill:rgb(0, 146.5000000001, 146.5000000001);}#mermaid-1685971879730 .label7{fill:hsl(0, 100%, 46.2745098039%);}#mermaid-1685971879730 .arrow7{stroke:hsl(0, 100%, 46.2745098039%);}#mermaid-1685971879730 .branch{stroke-width:1;stroke:#333333;stroke-dasharray:2;}#mermaid-1685971879730 .commit-label{font-size:10px;fill:#000021;}#mermaid-1685971879730 .commit-label-bkg{font-size:10px;fill:#ffffde;opacity:0.5;}#mermaid-1685971879730 .tag-label{font-size:10px;fill:#131300;}#mermaid-1685971879730 .tag-label-bkg{fill:#ECECFF;stroke:hsl(240, 60%, 86.2745098039%);}#mermaid-1685971879730 .tag-hole{fill:#333;}#mermaid-1685971879730 .commit-merge{stroke:#ECECFF;fill:#ECECFF;}#mermaid-1685971879730 .commit-reverse{stroke:#ECECFF;fill:#ECECFF;stroke-width:3;}#mermaid-1685971879730 .commit-highlight-inner{stroke:#ECECFF;fill:#ECECFF;}#mermaid-1685971879730 .arrow{stroke-width:8;stroke-linecap:round;fill:none;}#mermaid-1685971879730 .gitTitleText{text-anchor:middle;font-size:18px;fill:#333;}:root{--mermaid-font-family:"trebuchet ms",verdana,arial,sans-serif;}</style><g/><g class="commit-bullets"/><g class="commit-labels"/><g><line class="branch branch0" y2="0" x2="400" y1="0" x1="0"/><rect transform="translate(-19, -9.5)" height="23" width="53.25" y="-1.5" x="-69.25" ry="4" rx="4" class="branchLabelBkg label0"/><g class="branchLabel"><g transform="translate(-79.25, -10.5)" class="label branch-label0"><text><tspan class="row" x="0" dy="1em" xml:space="preserve">main</tspan></text></g></g><line class="branch branch1" y2="90" x2="400" y1="90" x1="0"/><rect transform="translate(-19, 80.5)" height="23" width="65.703125" y="-1.5" x="-81.703125" ry="4" rx="4" class="branchLabelBkg label1"/><g class="branchLabel"><g transform="translate(-91.703125, 79.5)" class="label branch-label1"><text><tspan class="row" x="0" dy="1em" xml:space="preserve">origins</tspan></text></g></g><line class="branch branch2" y2="180" x2="400" y1="180" x1="0"/><rect transform="translate(-19, 170.5)" height="23" width="81.078125" y="-1.5" x="-97.078125" ry="4" rx="4" class="branchLabelBkg label2"/><g class="branchLabel"><g transform="translate(-107.078125, 169.5)" class="label branch-label2"><text><tspan class="row" x="0" dy="1em" xml:space="preserve">featureA</tspan></text></g></g></g><g class="commit-arrows"><path class="arrow arrow1" d="M 10 0 L 10 70 A 20 20, 0, 0, 0, 30 90 L 60 90"/><path class="arrow arrow1" d="M 60 90 L 60 90  60 90 L 110 90"/><path class="arrow arrow0" d="M 10 0 L 10 0  10 0 L 160 0"/><path class="arrow arrow0" d="M 160 0 L 160 0  160 0 L 210 0"/><path class="arrow arrow0" d="M 210 0 L 210 0  210 0 L 260 0"/><path class="arrow arrow0" d="M 110 90 L 110 55 A 10 10, 0, 0, 1, 120 45 L 250 45 A 10 10, 0, 0, 0, 260 35 L 260 0"/><path class="arrow arrow0" d="M 260 0 L 260 0  260 0 L 310 0"/><path class="arrow arrow2" d="M 310 0 L 310 160 A 20 20, 0, 0, 0, 330 180 L 360 180"/></g><g class="commit-bullets"><circle class="commit 0-fd259d8 commit0" r="10" cy="0" cx="10"/><circle class="commit 1-107db4f commit1" r="10" cy="90" cx="60"/><circle class="commit 2-8009b1d commit1" r="10" cy="90" cx="110"/><rect class="commit 3-b5ac229 commit-highlight0 commit-highlight-outer" width="20" height="20" y="-10" x="150"/><rect class="commit 3-b5ac229 commit0 commit-highlight-inner" width="12" height="12" y="-6" x="154"/><circle class="commit 4-d87bb34 commit0" r="10" cy="0" cx="210"/><circle class="commit 5-a020ea5 commit0" r="9" cy="0" cx="260"/><circle class="commit commit-merge 5-a020ea5 commit0" r="6" cy="0" cx="260"/><circle class="commit 6-bf9601b commit0" r="10" cy="0" cx="310"/><circle class="commit 7-0655484 commit2" r="10" cy="180" cx="360"/></g><g class="commit-labels"><g transform="translate(-28.58517578125, 25.46568359375) rotate(-45, 0, 0)"><rect height="15" width="49.4873046875" y="13.5" x="-14.74365234375" class="commit-label-bkg"/><text class="commit-label" y="25" x="-12.74365234375">0-fd259d8</text></g><g transform="translate(-28.793359374999998, 25.651953125) rotate(-45, 50, 90)"><rect height="15" width="50.03515625" y="103.5" x="34.982421875" class="commit-label-bkg"/><text class="commit-label" y="115" x="36.982421875">1-107db4f</text></g><polygon points="33.13525390625,72.8&#10;          33.13525390625,68.8&#10;          41.13525390625,63.3&#10;          78.86474609375,63.3&#10;          78.86474609375,78.3&#10;          41.13525390625,78.3" class="tag-label-bkg"/><circle class="tag-hole" r="1.5" cy="70.8" cx="37.13525390625"/><text x="45.13525390625" class="tag-label" y="74">v1.0.0</text><g transform="translate(-29.04904296875, 25.88072265625) rotate(-45, 100, 90)"><rect height="15" width="50.7080078125" y="103.5" x="84.64599609375" class="commit-label-bkg"/><text class="commit-label" y="115" x="86.64599609375">2-8009b1d</text></g><g transform="translate(-28.941425781249997, 25.784433593750002) rotate(-45, 150, 0)"><rect height="15" width="50.4248046875" y="13.5" x="134.78759765625" class="commit-label-bkg"/><text class="commit-label" y="25" x="136.78759765625">3-b5ac229</text></g><g transform="translate(-29.67767578125, 26.44318359375) rotate(-45, 200, 0)"><rect height="15" width="52.3623046875" y="13.5" x="183.81884765625" class="commit-label-bkg"/><text class="commit-label" y="25" x="185.81884765625">4-d87bb34</text></g><g transform="translate(-28.460859375000002, 25.354453125) rotate(-45, 300, 0)"><rect height="15" width="49.16015625" y="13.5" x="285.419921875" class="commit-label-bkg"/><text class="commit-label" y="25" x="287.419921875">6-bf9601b</text></g><g transform="translate(-28.924726562500002, 25.7694921875) rotate(-45, 350, 180)"><rect height="15" width="50.380859375" y="193.5" x="334.8095703125" class="commit-label-bkg"/><text class="commit-label" y="205" x="336.8095703125">7-0655484</text></g></g></svg>