<svg aria-roledescription="er" role="graphics-document document" viewBox="0 0 695.2323608398438 342" style="max-width: 695.232px; background-color: white;" xmlns:xlink="http://www.w3.org/1999/xlink" xmlns="http://www.w3.org/2000/svg" width="100%" id="mermaid-1688131613168"><style>#mermaid-1688131613168{font-family:"trebuchet ms",verdana,arial,sans-serif;font-size:16px;fill:#333;}#mermaid-1688131613168 .error-icon{fill:#552222;}#mermaid-1688131613168 .error-text{fill:#552222;stroke:#552222;}#mermaid-1688131613168 .edge-thickness-normal{stroke-width:2px;}#mermaid-1688131613168 .edge-thickness-thick{stroke-width:3.5px;}#mermaid-1688131613168 .edge-pattern-solid{stroke-dasharray:0;}#mermaid-1688131613168 .edge-pattern-dashed{stroke-dasharray:3;}#mermaid-1688131613168 .edge-pattern-dotted{stroke-dasharray:2;}#mermaid-1688131613168 .marker{fill:#333333;stroke:#333333;}#mermaid-1688131613168 .marker.cross{stroke:#333333;}#mermaid-1688131613168 svg{font-family:"trebuchet ms",verdana,arial,sans-serif;font-size:16px;}#mermaid-1688131613168 .entityBox{fill:#ECECFF;stroke:#9370DB;}#mermaid-1688131613168 .attributeBoxOdd{fill:#ffffff;stroke:#9370DB;}#mermaid-1688131613168 .attributeBoxEven{fill:#f2f2f2;stroke:#9370DB;}#mermaid-1688131613168 .relationshipLabelBox{fill:hsl(80, 100%, 96.2745098039%);opacity:0.7;background-color:hsl(80, 100%, 96.2745098039%);}#mermaid-1688131613168 .relationshipLabelBox rect{opacity:0.5;}#mermaid-1688131613168 .relationshipLine{stroke:#333333;}#mermaid-1688131613168 .entityTitleText{text-anchor:middle;font-size:18px;fill:#333;}#mermaid-1688131613168 :root{--mermaid-font-family:"trebuchet ms",verdana,arial,sans-serif;}</style><g/><defs><marker orient="auto" markerHeight="18" markerWidth="18" refY="9" refX="0" id="ONLY_ONE_START"><path d="M9,0 L9,18 M15,0 L15,18" fill="none" stroke="gray"/></marker></defs><defs><marker orient="auto" markerHeight="18" markerWidth="18" refY="9" refX="18" id="ONLY_ONE_END"><path d="M3,0 L3,18 M9,0 L9,18" fill="none" stroke="gray"/></marker></defs><defs><marker orient="auto" markerHeight="18" markerWidth="30" refY="9" refX="0" id="ZERO_OR_ONE_START"><circle r="6" cy="9" cx="21" fill="white" stroke="gray"/><path d="M9,0 L9,18" fill="none" stroke="gray"/></marker></defs><defs><marker orient="auto" markerHeight="18" markerWidth="30" refY="9" refX="30" id="ZERO_OR_ONE_END"><circle r="6" cy="9" cx="9" fill="white" stroke="gray"/><path d="M21,0 L21,18" fill="none" stroke="gray"/></marker></defs><defs><marker orient="auto" markerHeight="36" markerWidth="45" refY="18" refX="18" id="ONE_OR_MORE_START"><path d="M0,18 Q 18,0 36,18 Q 18,36 0,18 M42,9 L42,27" fill="none" stroke="gray"/></marker></defs><defs><marker orient="auto" markerHeight="36" markerWidth="45" refY="18" refX="27" id="ONE_OR_MORE_END"><path d="M3,9 L3,27 M9,18 Q27,0 45,18 Q27,36 9,18" fill="none" stroke="gray"/></marker></defs><defs><marker orient="auto" markerHeight="36" markerWidth="57" refY="18" refX="18" id="ZERO_OR_MORE_START"><circle r="6" cy="18" cx="48" fill="white" stroke="gray"/><path d="M0,18 Q18,0 36,18 Q18,36 0,18" fill="none" stroke="gray"/></marker></defs><defs><marker orient="auto" markerHeight="36" markerWidth="57" refY="18" refX="39" id="ZERO_OR_MORE_END"><circle r="6" cy="18" cx="9" fill="white" stroke="gray"/><path d="M21,18 Q39,0 57,18 Q39,36 21,18" fill="none" stroke="gray"/></marker></defs><path style="stroke: gray; fill: none;" marker-start="url(#ZERO_OR_MORE_START)" marker-end="url(#ONLY_ONE_END)" d="M365.23236083984375,244.87753243151883L376.89902750651044,240.89794369293236C388.56569417317706,236.9183549543459,411.89902750651044,228.95917747717294,426.48236083984375,224.97958873858647C441.06569417317706,221,446.89902750651044,221,452.73236083984375,228.5C458.56569417317706,236,464.39902750651044,251,464.39902750651044,266C464.39902750651044,281,458.56569417317706,296,452.73236083984375,303.5C446.89902750651044,311,441.06569417317706,311,426.48236083984375,307.0204112614135C411.89902750651044,303.04082252282706,388.56569417317706,295.0816450456541,376.89902750651044,291.10205630706764L365.23236083984375,287.12246756848117" class="er relationshipLine"/><path style="stroke: gray; fill: none;" marker-start="url(#ZERO_OR_MORE_START)" marker-end="url(#ONLY_ONE_END)" d="M233.5357437133789,94.77535842182125L208.06195322672525,105.64613201818436C182.58816274007162,116.5169056145475,131.6405817667643,138.25845280727376,106.16679128011067,161.12922640363686C80.69300079345703,184,80.69300079345703,208,80.69300079345703,220L80.69300079345703,232" class="er relationshipLine"/><path style="stroke: gray; fill: none;" marker-start="url(#ZERO_OR_MORE_START)" marker-end="url(#ONLY_ONE_END)" d="M303.3091812133789,110L303.3091812133789,118.33333333333333C303.3091812133789,126.66666666666667,303.3091812133789,143.33333333333334,303.3091812133789,161.83333333333334C303.3091812133789,180.33333333333334,303.3091812133789,200.66666666666666,303.3091812133789,210.83333333333334L303.3091812133789,221" class="er relationshipLine"/><path style="stroke: gray; fill: none;" marker-start="url(#ZERO_OR_MORE_START)" marker-end="url(#ONLY_ONE_END)" d="M373.0826187133789,85.5902432070632L415.10757573445636,97.99186933921932C457.1325327555339,110.39349547137546,541.1824467976888,135.19674773568772,583.2074038187662,155.9317072011772C625.2323608398438,176.66666666666666,625.2323608398438,193.33333333333334,625.2323608398438,201.66666666666666L625.2323608398438,210" class="er relationshipLine"/><g transform="translate(241.38600158691406,221 )" id="entity-CULTIVO-e4b9731a-f9ba-53ce-81f3-5f99d48f381b"><rect height="90" width="123.84635925292969" y="0" x="0" class="er entityBox"/><text style="dominant-baseline: middle; text-anchor: middle; font-size: 12px;" transform="translate(61.923179626464844,12)" y="0" x="0" id="text-entity-CULTIVO-e4b9731a-f9ba-53ce-81f3-5f99d48f381b" class="er entityLabel">CULTIVO</text><rect height="22" width="36.61909484863281" y="24" x="0" class="er attributeBoxOdd"/><text style="dominant-baseline: middle; font-size: 10.2px;" transform="translate(5,35)" y="0" x="0" id="text-entity-CULTIVO-e4b9731a-f9ba-53ce-81f3-5f99d48f381b-attr-1-type" class="er entityLabel">string</text><rect height="22" width="64.87326049804688" y="24" x="36.61909484863281" class="er attributeBoxOdd"/><text style="dominant-baseline: middle; font-size: 10.2px;" transform="translate(41.61909484863281,35)" y="0" x="0" id="text-entity-CULTIVO-e4b9731a-f9ba-53ce-81f3-5f99d48f381b-attr-1-name" class="er entityLabel">nombre</text><rect height="22" width="22.35400390625" y="24" x="101.49235534667969" class="er attributeBoxOdd"/><text style="dominant-baseline: middle; font-size: 10.2px;" transform="translate(106.49235534667969,35)" y="0" x="0" id="text-entity-CULTIVO-e4b9731a-f9ba-53ce-81f3-5f99d48f381b-attr-1-key" class="er entityLabel">FK</text><rect height="22" width="36.61909484863281" y="46" x="0" class="er attributeBoxEven"/><text style="dominant-baseline: middle; font-size: 10.2px;" transform="translate(5,57)" y="0" x="0" id="text-entity-CULTIVO-e4b9731a-f9ba-53ce-81f3-5f99d48f381b-attr-2-type" class="er entityLabel">string</text><rect height="22" width="64.87326049804688" y="46" x="36.61909484863281" class="er attributeBoxEven"/><text style="dominant-baseline: middle; font-size: 10.2px;" transform="translate(41.61909484863281,57)" y="0" x="0" id="text-entity-CULTIVO-e4b9731a-f9ba-53ce-81f3-5f99d48f381b-attr-2-name" class="er entityLabel">descripcion</text><rect height="22" width="22.35400390625" y="46" x="101.49235534667969" class="er attributeBoxEven"/><text style="dominant-baseline: middle; font-size: 10.2px;" transform="translate(106.49235534667969,57)" y="0" x="0" id="text-entity-CULTIVO-e4b9731a-f9ba-53ce-81f3-5f99d48f381b-attr-2-key" class="er entityLabel"/><rect height="22" width="36.61909484863281" y="68" x="0" class="er attributeBoxOdd"/><text style="dominant-baseline: middle; font-size: 10.2px;" transform="translate(5,79)" y="0" x="0" id="text-entity-CULTIVO-e4b9731a-f9ba-53ce-81f3-5f99d48f381b-attr-3-type" class="er entityLabel">string</text><rect height="22" width="64.87326049804688" y="68" x="36.61909484863281" class="er attributeBoxOdd"/><text style="dominant-baseline: middle; font-size: 10.2px;" transform="translate(41.61909484863281,79)" y="0" x="0" id="text-entity-CULTIVO-e4b9731a-f9ba-53ce-81f3-5f99d48f381b-attr-3-name" class="er entityLabel">es_variedad</text><rect height="22" width="22.35400390625" y="68" x="101.49235534667969" class="er attributeBoxOdd"/><text style="dominant-baseline: middle; font-size: 10.2px;" transform="translate(106.49235534667969,79)" y="0" x="0" id="text-entity-CULTIVO-e4b9731a-f9ba-53ce-81f3-5f99d48f381b-attr-3-key" class="er entityLabel">FK</text></g><g transform="translate(20,232 )" id="entity-FENOLOGICO-df590e33-11fa-5254-9ad3-7d383a1cd677"><rect height="68" width="121.38600158691406" y="0" x="0" class="er entityBox"/><text style="dominant-baseline: middle; text-anchor: middle; font-size: 12px;" transform="translate(60.69300079345703,12)" y="0" x="0" id="text-entity-FENOLOGICO-df590e33-11fa-5254-9ad3-7d383a1cd677" class="er entityLabel">FENOLOGICO</text><rect height="22" width="36.61909484863281" y="24" x="0" class="er attributeBoxOdd"/><text style="dominant-baseline: middle; font-size: 10.2px;" transform="translate(5,35)" y="0" x="0" id="text-entity-FENOLOGICO-df590e33-11fa-5254-9ad3-7d383a1cd677-attr-1-type" class="er entityLabel">string</text><rect height="22" width="62.41290283203125" y="24" x="36.61909484863281" class="er attributeBoxOdd"/><text style="dominant-baseline: middle; font-size: 10.2px;" transform="translate(41.61909484863281,35)" y="0" x="0" id="text-entity-FENOLOGICO-df590e33-11fa-5254-9ad3-7d383a1cd677-attr-1-name" class="er entityLabel">nombre</text><rect height="22" width="22.35400390625" y="24" x="99.03199768066406" class="er attributeBoxOdd"/><text style="dominant-baseline: middle; font-size: 10.2px;" transform="translate(104.03199768066406,35)" y="0" x="0" id="text-entity-FENOLOGICO-df590e33-11fa-5254-9ad3-7d383a1cd677-attr-1-key" class="er entityLabel">FK</text><rect height="22" width="36.61909484863281" y="46" x="0" class="er attributeBoxEven"/><text style="dominant-baseline: middle; font-size: 10.2px;" transform="translate(5,57)" y="0" x="0" id="text-entity-FENOLOGICO-df590e33-11fa-5254-9ad3-7d383a1cd677-attr-2-type" class="er entityLabel">string</text><rect height="22" width="62.41290283203125" y="46" x="36.61909484863281" class="er attributeBoxEven"/><text style="dominant-baseline: middle; font-size: 10.2px;" transform="translate(41.61909484863281,57)" y="0" x="0" id="text-entity-FENOLOGICO-df590e33-11fa-5254-9ad3-7d383a1cd677-attr-2-name" class="er entityLabel">descripcion</text><rect height="22" width="22.35400390625" y="46" x="99.03199768066406" class="er attributeBoxEven"/><text style="dominant-baseline: middle; font-size: 10.2px;" transform="translate(104.03199768066406,57)" y="0" x="0" id="text-entity-FENOLOGICO-df590e33-11fa-5254-9ad3-7d383a1cd677-attr-2-key" class="er entityLabel"/></g><g transform="translate(233.5357437133789,20 )" id="entity-MIRARFENOLOGICO-059a82cc-d1ec-505c-9e2e-c63d973e53f3"><rect height="90" width="139.546875" y="0" x="0" class="er entityBox"/><text style="dominant-baseline: middle; text-anchor: middle; font-size: 12px;" transform="translate(69.7734375,12)" y="0" x="0" id="text-entity-MIRARFENOLOGICO-059a82cc-d1ec-505c-9e2e-c63d973e53f3" class="er entityLabel">MIRAR_FENOLOGICO</text><rect height="22" width="44.16353861490885" y="24" x="0" class="er attributeBoxOdd"/><text style="dominant-baseline: middle; font-size: 10.2px;" transform="translate(5,35)" y="0" x="0" id="text-entity-MIRARFENOLOGICO-059a82cc-d1ec-505c-9e2e-c63d973e53f3-attr-1-type" class="er entityLabel">string</text><rect height="22" width="65.48488871256511" y="24" x="44.16353861490885" class="er attributeBoxOdd"/><text style="dominant-baseline: middle; font-size: 10.2px;" transform="translate(49.16353861490885,35)" y="0" x="0" id="text-entity-MIRARFENOLOGICO-059a82cc-d1ec-505c-9e2e-c63d973e53f3-attr-1-name" class="er entityLabel">fenologico</text><rect height="22" width="29.898447672526043" y="24" x="109.64842732747397" class="er attributeBoxOdd"/><text style="dominant-baseline: middle; font-size: 10.2px;" transform="translate(114.64842732747397,35)" y="0" x="0" id="text-entity-MIRARFENOLOGICO-059a82cc-d1ec-505c-9e2e-c63d973e53f3-attr-1-key" class="er entityLabel">FK</text><rect height="22" width="44.16353861490885" y="46" x="0" class="er attributeBoxEven"/><text style="dominant-baseline: middle; font-size: 10.2px;" transform="translate(5,57)" y="0" x="0" id="text-entity-MIRARFENOLOGICO-059a82cc-d1ec-505c-9e2e-c63d973e53f3-attr-2-type" class="er entityLabel">string</text><rect height="22" width="65.48488871256511" y="46" x="44.16353861490885" class="er attributeBoxEven"/><text style="dominant-baseline: middle; font-size: 10.2px;" transform="translate(49.16353861490885,57)" y="0" x="0" id="text-entity-MIRARFENOLOGICO-059a82cc-d1ec-505c-9e2e-c63d973e53f3-attr-2-name" class="er entityLabel">parcela</text><rect height="22" width="29.898447672526043" y="46" x="109.64842732747397" class="er attributeBoxEven"/><text style="dominant-baseline: middle; font-size: 10.2px;" transform="translate(114.64842732747397,57)" y="0" x="0" id="text-entity-MIRARFENOLOGICO-059a82cc-d1ec-505c-9e2e-c63d973e53f3-attr-2-key" class="er entityLabel">FK</text><rect height="22" width="44.16353861490885" y="68" x="0" class="er attributeBoxOdd"/><text style="dominant-baseline: middle; font-size: 10.2px;" transform="translate(5,79)" y="0" x="0" id="text-entity-MIRARFENOLOGICO-059a82cc-d1ec-505c-9e2e-c63d973e53f3-attr-3-type" class="er entityLabel">string</text><rect height="22" width="65.48488871256511" y="68" x="44.16353861490885" class="er attributeBoxOdd"/><text style="dominant-baseline: middle; font-size: 10.2px;" transform="translate(49.16353861490885,79)" y="0" x="0" id="text-entity-MIRARFENOLOGICO-059a82cc-d1ec-505c-9e2e-c63d973e53f3-attr-3-name" class="er entityLabel">fecha</text><rect height="22" width="29.898447672526043" y="68" x="109.64842732747397" class="er attributeBoxOdd"/><text style="dominant-baseline: middle; font-size: 10.2px;" transform="translate(114.64842732747397,79)" y="0" x="0" id="text-entity-MIRARFENOLOGICO-059a82cc-d1ec-505c-9e2e-c63d973e53f3-attr-3-key" class="er entityLabel">FK</text></g><g transform="translate(575.2323608398438,210 )" id="entity-PARCELA-397a2d3f-8cad-5f6f-9c32-31c208451969"><rect height="112" width="100" y="0" x="0" class="er entityBox"/><text style="dominant-baseline: middle; text-anchor: middle; font-size: 12px;" transform="translate(50,12)" y="0" x="0" id="text-entity-PARCELA-397a2d3f-8cad-5f6f-9c32-31c208451969" class="er entityLabel">PARCELA</text><rect height="22" width="48.63038635253906" y="24" x="0" class="er attributeBoxOdd"/><text style="dominant-baseline: middle; font-size: 10.2px;" transform="translate(5,35)" y="0" x="0" id="text-entity-PARCELA-397a2d3f-8cad-5f6f-9c32-31c208451969-attr-1-type" class="er entityLabel">string</text><rect height="22" width="51.36961364746094" y="24" x="48.63038635253906" class="er attributeBoxOdd"/><text style="dominant-baseline: middle; font-size: 10.2px;" transform="translate(53.63038635253906,35)" y="0" x="0" id="text-entity-PARCELA-397a2d3f-8cad-5f6f-9c32-31c208451969-attr-1-name" class="er entityLabel">idx</text><rect height="22" width="48.63038635253906" y="46" x="0" class="er attributeBoxEven"/><text style="dominant-baseline: middle; font-size: 10.2px;" transform="translate(5,57)" y="0" x="0" id="text-entity-PARCELA-397a2d3f-8cad-5f6f-9c32-31c208451969-attr-2-type" class="er entityLabel">string</text><rect height="22" width="51.36961364746094" y="46" x="48.63038635253906" class="er attributeBoxEven"/><text style="dominant-baseline: middle; font-size: 10.2px;" transform="translate(53.63038635253906,57)" y="0" x="0" id="text-entity-PARCELA-397a2d3f-8cad-5f6f-9c32-31c208451969-attr-2-name" class="er entityLabel">estacion</text><rect height="22" width="48.63038635253906" y="68" x="0" class="er attributeBoxOdd"/><text style="dominant-baseline: middle; font-size: 10.2px;" transform="translate(5,79)" y="0" x="0" id="text-entity-PARCELA-397a2d3f-8cad-5f6f-9c32-31c208451969-attr-3-type" class="er entityLabel">float</text><rect height="22" width="51.36961364746094" y="68" x="48.63038635253906" class="er attributeBoxOdd"/><text style="dominant-baseline: middle; font-size: 10.2px;" transform="translate(53.63038635253906,79)" y="0" x="0" id="text-entity-PARCELA-397a2d3f-8cad-5f6f-9c32-31c208451969-attr-3-name" class="er entityLabel">altitud</text><rect height="22" width="48.63038635253906" y="90" x="0" class="er attributeBoxEven"/><text style="dominant-baseline: middle; font-size: 10.2px;" transform="translate(5,101)" y="0" x="0" id="text-entity-PARCELA-397a2d3f-8cad-5f6f-9c32-31c208451969-attr-4-type" class="er entityLabel">polygon</text><rect height="22" width="51.36961364746094" y="90" x="48.63038635253906" class="er attributeBoxEven"/><text style="dominant-baseline: middle; font-size: 10.2px;" transform="translate(53.63038635253906,101)" y="0" x="0" id="text-entity-PARCELA-397a2d3f-8cad-5f6f-9c32-31c208451969-attr-4-name" class="er entityLabel">geom</text></g><rect height="14" width="44.978515625" y="259" x="441.9097595214844" class="er relationshipLabelBox"/><text style="text-anchor: middle; dominant-baseline: middle; font-size: 12px;" y="266" x="464.3990173339844" id="rel1" class="er relationshipLabel">contains</text><rect height="14" width="44.978515625" y="135.1116485595703" x="110.42568969726562" class="er relationshipLabelBox"/><text style="text-anchor: middle; dominant-baseline: middle; font-size: 12px;" y="142.1116485595703" x="132.91494750976562" id="rel2" class="er relationshipLabel">contains</text><rect height="14" width="44.978515625" y="158.5" x="280.8199157714844" class="er relationshipLabelBox"/><text style="text-anchor: middle; dominant-baseline: middle; font-size: 12px;" y="165.5" x="303.3091735839844" id="rel3" class="er relationshipLabel">contains</text><rect height="14" width="44.978515625" y="121.95416259765625" x="491.99127197265625" class="er relationshipLabelBox"/><text style="text-anchor: middle; dominant-baseline: middle; font-size: 12px;" y="128.95416259765625" x="514.4805297851562" id="rel4" class="er relationshipLabel">contains</text></svg>